<svg width="1349.301" height="100.6" viewBox="0 0 1349.301 100.6" xmlns="http://www.w3.org/2000/svg"><g id="svgGroup" stroke-linecap="round" fill-rule="evenodd" font-size="9pt" stroke="#f9faf6" stroke-width="0.35mm" fill="#eff5ef" style="stroke:#f9faf6;stroke-width:0.35mm;fill:#eff5ef"><path d="M 974.4 21.9 L 972 19.8 L 973.2 5.9 L 979.4 5.9 L 979.4 26.3 L 972.7 26.3 A 30.95 30.95 0 0 0 970.977 21.735 A 23.082 23.082 0 0 0 968.55 17.7 A 17.985 17.985 0 0 0 964.038 13.441 A 16.828 16.828 0 0 0 962.2 12.4 A 17.712 17.712 0 0 0 956.87 10.813 A 22.866 22.866 0 0 0 953.7 10.6 A 27.217 27.217 0 0 0 950.607 10.766 Q 947.852 11.082 945.85 12 A 10.287 10.287 0 0 0 943.318 13.619 A 8.528 8.528 0 0 0 941.4 16.05 Q 940.005 18.691 940 22.375 A 19.476 19.476 0 0 0 940 22.4 Q 940 26.1 941.55 28.45 A 11.244 11.244 0 0 0 945.063 31.825 A 13.512 13.512 0 0 0 945.8 32.25 Q 948.5 33.7 952.1 34.75 Q 955.7 35.8 959.8 36.9 Q 964.1 38 968.25 39.4 A 32.232 32.232 0 0 1 975.634 42.957 A 30.27 30.27 0 0 1 975.85 43.1 Q 979.3 45.4 981.3 49.05 A 15.228 15.228 0 0 1 982.768 53.02 Q 983.3 55.364 983.3 58.2 A 26.336 26.336 0 0 1 982.819 63.373 Q 982.175 66.59 980.667 69.135 A 15.964 15.964 0 0 1 980.15 69.95 Q 977 74.6 971.65 76.85 A 28.428 28.428 0 0 1 964.396 78.784 A 36.623 36.623 0 0 1 959.5 79.1 A 35.525 35.525 0 0 1 952.389 78.413 A 29.875 29.875 0 0 1 947.95 77.15 Q 942.7 75.2 939.05 70.75 A 20.726 20.726 0 0 1 936.123 65.886 Q 934.744 62.738 934 58.7 L 937.1 61.5 L 935.9 77.9 L 929.4 77.9 L 929.4 54.4 L 936.2 54.4 A 31.916 31.916 0 0 0 938.088 59.945 A 24.42 24.42 0 0 0 940.9 64.7 Q 944.1 68.9 948.75 70.95 A 23.963 23.963 0 0 0 955.391 72.758 A 30.582 30.582 0 0 0 959.3 73 A 34.341 34.341 0 0 0 962.809 72.832 Q 964.528 72.655 965.987 72.292 A 16.296 16.296 0 0 0 967.75 71.75 A 10.405 10.405 0 0 0 970.596 70.176 A 8.879 8.879 0 0 0 972.75 67.7 A 10.806 10.806 0 0 0 973.878 64.906 Q 974.4 62.888 974.4 60.3 A 16.281 16.281 0 0 0 974.161 57.429 Q 973.762 55.207 972.7 53.55 A 12.931 12.931 0 0 0 968.291 49.361 A 15.099 15.099 0 0 0 968.1 49.25 A 30.238 30.238 0 0 0 963.808 47.251 A 36.417 36.417 0 0 0 961.6 46.5 Q 958 45.4 954.2 44.5 A 161.145 161.145 0 0 1 946.768 42.285 A 145.897 145.897 0 0 1 945.75 41.95 A 28.859 28.859 0 0 1 940.367 39.545 A 25.548 25.548 0 0 1 938.5 38.35 Q 935.3 36.1 933.45 32.45 A 15.769 15.769 0 0 1 932.153 28.742 Q 931.773 27.038 931.654 25.057 A 31.005 31.005 0 0 1 931.6 23.2 Q 931.6 17.5 934.25 13.35 A 17.083 17.083 0 0 1 940.315 7.669 A 21.138 21.138 0 0 1 941.8 6.9 Q 946.7 4.6 953.3 4.6 Q 958.6 4.6 962.75 6.2 A 16.578 16.578 0 0 1 969.23 10.756 A 19.936 19.936 0 0 1 969.9 11.55 A 18.891 18.891 0 0 1 972.164 15.222 Q 973.02 17.011 973.679 19.173 A 38.872 38.872 0 0 1 974.4 21.9 Z M 315.5 52.4 L 321.7 54.9 A 39.859 39.859 0 0 1 318.094 63.59 A 34.687 34.687 0 0 1 315.4 67.65 Q 311.2 73.1 305 76.1 Q 298.8 79.1 290.8 79.1 A 41.146 41.146 0 0 1 282.159 78.225 A 34.452 34.452 0 0 1 276.75 76.6 Q 270.4 74.1 265.8 69.25 A 31.842 31.842 0 0 1 259.744 60.016 A 37.805 37.805 0 0 1 258.75 57.5 Q 256.3 50.6 256.3 41.9 Q 256.3 33.1 258.85 26.2 A 35.477 35.477 0 0 1 262.838 18.396 A 30.75 30.75 0 0 1 266 14.5 Q 270.6 9.7 276.75 7.15 A 33.992 33.992 0 0 1 289.061 4.612 A 39.021 39.021 0 0 1 290 4.6 A 35.056 35.056 0 0 1 295.761 5.05 Q 299.014 5.592 301.739 6.788 A 21.682 21.682 0 0 1 302.1 6.95 Q 307.2 9.3 310.5 13.8 A 24.519 24.519 0 0 1 313.705 19.862 A 32.998 32.998 0 0 1 315.1 24.9 L 312.2 22.3 L 313.6 5.9 L 320.1 5.9 L 320.1 29.7 L 313.1 29.7 A 35.178 35.178 0 0 0 310.822 23.835 A 28.208 28.208 0 0 0 308.3 19.7 Q 305.2 15.5 300.65 13.2 A 21.127 21.127 0 0 0 294.225 11.197 A 27.642 27.642 0 0 0 290.1 10.9 A 25.153 25.153 0 0 0 284.357 11.533 A 21.034 21.034 0 0 0 280.35 12.9 Q 276 14.9 272.85 18.8 A 24.525 24.525 0 0 0 269.692 23.945 A 32.859 32.859 0 0 0 268 28.5 Q 266.3 34.3 266.3 41.9 A 59.636 59.636 0 0 0 266.616 48.196 Q 266.965 51.479 267.699 54.329 A 35.056 35.056 0 0 0 267.95 55.25 A 30.495 30.495 0 0 0 269.969 60.5 A 23.46 23.46 0 0 0 272.8 64.9 Q 276 68.8 280.65 70.8 Q 285.3 72.8 291.3 72.8 A 27.091 27.091 0 0 0 296.912 72.246 A 20.291 20.291 0 0 0 302.7 70.1 Q 307.5 67.4 310.65 62.75 A 37.238 37.238 0 0 0 315.386 52.778 A 41.677 41.677 0 0 0 315.5 52.4 Z M 1036.8 62.3 L 1041.6 66.2 A 24.374 24.374 0 0 1 1036.793 72.372 A 27.341 27.341 0 0 1 1036.6 72.55 Q 1033.5 75.4 1029.35 76.95 A 24.416 24.416 0 0 1 1023.494 78.317 A 30.59 30.59 0 0 1 1020.1 78.5 Q 1012.5 78.5 1006.4 75.3 Q 1000.3 72.1 996.75 65.9 A 26.171 26.171 0 0 1 993.786 57.656 A 36.069 36.069 0 0 1 993.2 51 A 37.586 37.586 0 0 1 993.914 43.504 A 28.533 28.533 0 0 1 996.45 36.15 Q 999.7 29.8 1005.35 26.25 A 23.239 23.239 0 0 1 1016.059 22.787 A 28.533 28.533 0 0 1 1018.3 22.7 A 30.78 30.78 0 0 1 1023.156 23.064 Q 1025.853 23.495 1028.119 24.437 A 18.722 18.722 0 0 1 1028.5 24.6 Q 1032.8 26.5 1035.7 30.3 A 23.142 23.142 0 0 1 1038.453 35.025 A 32.009 32.009 0 0 1 1040.1 39.8 Q 1041.451 44.933 1041.585 51.605 A 74.183 74.183 0 0 1 1041.6 53.1 L 1000.2 53.1 L 1000.2 47.3 L 1035 47.3 L 1032.4 49.5 A 76.814 76.814 0 0 0 1032.159 45.471 Q 1031.881 42.319 1031.35 39.85 Q 1030.683 36.749 1029.522 34.572 A 12.722 12.722 0 0 0 1028.85 33.45 Q 1027.2 31 1024.6 29.9 A 13.022 13.022 0 0 0 1021.921 29.111 Q 1020.628 28.868 1019.145 28.815 A 23.634 23.634 0 0 0 1018.3 28.8 A 15.843 15.843 0 0 0 1013.601 29.483 A 14.441 14.441 0 0 0 1011.85 30.15 A 13.188 13.188 0 0 0 1007.371 33.541 A 15.807 15.807 0 0 0 1006.75 34.3 A 17.332 17.332 0 0 0 1004.748 37.67 Q 1004.013 39.28 1003.484 41.178 A 28.287 28.287 0 0 0 1003.45 41.3 A 30.496 30.496 0 0 0 1002.625 45.545 Q 1002.361 47.642 1002.311 49.999 A 52.535 52.535 0 0 0 1002.3 51.1 A 41.64 41.64 0 0 0 1002.521 55.512 Q 1002.754 57.701 1003.236 59.579 A 22.045 22.045 0 0 0 1003.65 61 A 19.75 19.75 0 0 0 1005.051 64.282 A 14.4 14.4 0 0 0 1007.5 67.6 Q 1010 70.1 1013.25 71.3 A 19.632 19.632 0 0 0 1018.837 72.455 A 23.099 23.099 0 0 0 1020.3 72.5 Q 1024.5 72.5 1027.6 71 A 19.308 19.308 0 0 0 1032.072 68.039 A 17.813 17.813 0 0 0 1032.95 67.2 Q 1035.2 64.9 1036.8 62.3 Z M 1293.3 62.3 L 1298.1 66.2 A 24.374 24.374 0 0 1 1293.293 72.372 A 27.341 27.341 0 0 1 1293.1 72.55 Q 1290 75.4 1285.85 76.95 A 24.416 24.416 0 0 1 1279.994 78.317 A 30.59 30.59 0 0 1 1276.6 78.5 Q 1269 78.5 1262.9 75.3 Q 1256.8 72.1 1253.25 65.9 A 26.171 26.171 0 0 1 1250.286 57.656 A 36.069 36.069 0 0 1 1249.7 51 A 37.586 37.586 0 0 1 1250.414 43.504 A 28.533 28.533 0 0 1 1252.95 36.15 Q 1256.2 29.8 1261.85 26.25 A 23.239 23.239 0 0 1 1272.559 22.787 A 28.533 28.533 0 0 1 1274.8 22.7 A 30.78 30.78 0 0 1 1279.656 23.064 Q 1282.353 23.495 1284.619 24.437 A 18.722 18.722 0 0 1 1285 24.6 Q 1289.3 26.5 1292.2 30.3 A 23.142 23.142 0 0 1 1294.953 35.025 A 32.009 32.009 0 0 1 1296.6 39.8 Q 1297.951 44.933 1298.085 51.605 A 74.183 74.183 0 0 1 1298.1 53.1 L 1256.7 53.1 L 1256.7 47.3 L 1291.5 47.3 L 1288.9 49.5 A 76.814 76.814 0 0 0 1288.659 45.471 Q 1288.381 42.319 1287.85 39.85 Q 1287.183 36.749 1286.022 34.572 A 12.722 12.722 0 0 0 1285.35 33.45 Q 1283.7 31 1281.1 29.9 A 13.022 13.022 0 0 0 1278.421 29.111 Q 1277.128 28.868 1275.645 28.815 A 23.634 23.634 0 0 0 1274.8 28.8 A 15.843 15.843 0 0 0 1270.101 29.483 A 14.441 14.441 0 0 0 1268.35 30.15 A 13.188 13.188 0 0 0 1263.871 33.541 A 15.807 15.807 0 0 0 1263.25 34.3 A 17.332 17.332 0 0 0 1261.248 37.67 Q 1260.513 39.28 1259.984 41.178 A 28.287 28.287 0 0 0 1259.95 41.3 A 30.496 30.496 0 0 0 1259.125 45.545 Q 1258.861 47.642 1258.811 49.999 A 52.535 52.535 0 0 0 1258.8 51.1 A 41.64 41.64 0 0 0 1259.021 55.512 Q 1259.254 57.701 1259.736 59.579 A 22.045 22.045 0 0 0 1260.15 61 A 19.75 19.75 0 0 0 1261.551 64.282 A 14.4 14.4 0 0 0 1264 67.6 Q 1266.5 70.1 1269.75 71.3 A 19.632 19.632 0 0 0 1275.337 72.455 A 23.099 23.099 0 0 0 1276.8 72.5 Q 1281 72.5 1284.1 71 A 19.308 19.308 0 0 0 1288.572 68.039 A 17.813 17.813 0 0 0 1289.45 67.2 Q 1291.7 64.9 1293.3 62.3 Z M 25.8 68.3 L 25.8 12.3 L 20.1 12.3 A 87.497 87.497 0 0 0 17.401 12.339 Q 14.714 12.423 12.825 12.683 A 25.093 25.093 0 0 0 12.7 12.7 Q 10.06 13.077 8.754 14.077 A 3.999 3.999 0 0 0 8.6 14.2 A 4.238 4.238 0 0 0 7.117 16.961 A 5.502 5.502 0 0 0 7.1 17.1 L 6 28.3 L 0 28.3 L 0 6.4 L 60.9 6.4 L 60.9 28.3 L 54.9 28.3 L 53.8 17.1 A 4.431 4.431 0 0 0 53.276 15.408 A 4.192 4.192 0 0 0 52.25 14.2 Q 50.9 13.1 48.1 12.7 Q 45.3 12.3 40.8 12.3 L 35.1 12.3 L 35.1 68.3 A 2.892 2.892 0 0 0 35.402 69.649 Q 35.966 70.737 37.58 71.195 A 6.296 6.296 0 0 0 37.6 71.2 A 16.871 16.871 0 0 0 39.783 71.647 Q 41.574 71.9 43.8 71.9 L 45.6 71.9 L 45.6 77.4 L 15.2 77.4 L 15.2 71.9 L 17 71.9 A 32.719 32.719 0 0 0 19.613 71.802 Q 21.656 71.638 23.25 71.2 A 4.954 4.954 0 0 0 24.358 70.761 Q 25.777 69.968 25.8 68.354 A 3.75 3.75 0 0 0 25.8 68.3 Z M 501.6 26.2 L 501.6 38.8 L 492.8 38.8 L 492.8 28.4 A 5.644 5.644 0 0 1 493.655 28.462 Q 494.125 28.534 494.524 28.69 A 3.526 3.526 0 0 1 494.55 28.7 Q 495.3 29 495.75 29.55 Q 496.148 30.036 496.389 30.796 A 5.78 5.78 0 0 1 496.45 31 A 4.931 4.931 0 0 1 496.614 31.977 Q 496.649 32.465 496.6 33 A 8.882 8.882 0 0 0 494.997 31.552 A 11.996 11.996 0 0 0 493.4 30.6 A 15.25 15.25 0 0 0 490.685 29.565 A 19.143 19.143 0 0 0 488.85 29.15 A 29.34 29.34 0 0 0 485.575 28.769 A 36.637 36.637 0 0 0 483.3 28.7 A 25.146 25.146 0 0 0 480.23 28.874 Q 476.92 29.283 474.982 30.651 A 6.924 6.924 0 0 0 474.65 30.9 A 7.116 7.116 0 0 0 471.933 36.088 A 9.82 9.82 0 0 0 471.9 36.9 Q 471.9 39.4 473.05 41 A 7.971 7.971 0 0 0 475.142 42.99 A 9.986 9.986 0 0 0 476.2 43.6 Q 478.2 44.6 480.85 45.35 Q 483.5 46.1 486.4 46.7 Q 489.6 47.4 492.8 48.45 A 24.552 24.552 0 0 1 496.979 50.248 A 21.46 21.46 0 0 1 498.55 51.2 Q 501.1 52.9 502.65 55.6 A 10.988 10.988 0 0 1 503.809 58.637 Q 504.115 59.969 504.181 61.517 A 20.508 20.508 0 0 1 504.2 62.4 Q 504.2 67.1 501.8 70.75 A 14.524 14.524 0 0 1 497.475 74.973 A 19.342 19.342 0 0 1 494.7 76.45 A 22.743 22.743 0 0 1 489.989 77.887 Q 486.873 78.5 483.1 78.5 A 66.193 66.193 0 0 1 478.643 78.357 Q 476.548 78.216 474.679 77.934 A 40.4 40.4 0 0 1 474.15 77.85 Q 470.2 77.2 467.15 76.05 Q 464.1 74.9 461.9 73.6 L 461.9 60.5 L 470.9 60.5 L 470.9 74.3 Q 469.792 73.746 469.044 73.192 A 6.567 6.567 0 0 1 468.45 72.7 A 5.96 5.96 0 0 1 467.89 72.1 Q 467.488 71.6 467.3 71.1 A 4.801 4.801 0 0 1 467 69.401 Q 467 68.5 467.2 67.6 A 13.58 13.58 0 0 0 469.364 69.241 A 17.608 17.608 0 0 0 471.15 70.2 A 22.556 22.556 0 0 0 473.999 71.295 A 29.095 29.095 0 0 0 476.5 71.95 A 28.309 28.309 0 0 0 480.274 72.493 A 36.044 36.044 0 0 0 483.1 72.6 A 27.781 27.781 0 0 0 486.053 72.453 Q 487.489 72.299 488.711 71.985 A 13.589 13.589 0 0 0 490.1 71.55 A 10.539 10.539 0 0 0 492.274 70.452 A 7.885 7.885 0 0 0 494.35 68.45 Q 495.8 66.4 495.8 63.3 A 8.268 8.268 0 0 0 495.61 61.482 A 5.921 5.921 0 0 0 494.65 59.3 A 7.971 7.971 0 0 0 492.558 57.31 A 9.986 9.986 0 0 0 491.5 56.7 A 20.399 20.399 0 0 0 489.076 55.686 A 26.098 26.098 0 0 0 486.95 55.05 Q 484.4 54.4 481.7 53.8 Q 478.4 53 475.2 52 A 23.736 23.736 0 0 1 470.566 50.011 A 21.416 21.416 0 0 1 469.4 49.3 Q 466.8 47.6 465.25 44.85 Q 463.846 42.359 463.714 38.759 A 20.71 20.71 0 0 1 463.7 38 A 15.537 15.537 0 0 1 464.33 33.5 A 13.25 13.25 0 0 1 466 29.95 A 13.918 13.918 0 0 1 470.332 25.828 A 18.197 18.197 0 0 1 472.7 24.6 A 21.923 21.923 0 0 1 477.467 23.19 Q 479.648 22.792 482.136 22.718 A 38.821 38.821 0 0 1 483.3 22.7 A 67.62 67.62 0 0 1 487.28 22.811 Q 489.768 22.958 491.85 23.3 Q 494.627 23.757 496.709 24.329 A 27.354 27.354 0 0 1 497.95 24.7 A 36.861 36.861 0 0 1 499.229 25.142 Q 500.738 25.697 501.6 26.2 Z M 1346.7 26.2 L 1346.7 38.8 L 1337.9 38.8 L 1337.9 28.4 A 5.644 5.644 0 0 1 1338.755 28.462 Q 1339.225 28.534 1339.624 28.69 A 3.526 3.526 0 0 1 1339.65 28.7 Q 1340.4 29 1340.85 29.55 Q 1341.248 30.036 1341.489 30.796 A 5.78 5.78 0 0 1 1341.55 31 A 4.931 4.931 0 0 1 1341.714 31.977 Q 1341.749 32.465 1341.7 33 A 8.882 8.882 0 0 0 1340.097 31.552 A 11.996 11.996 0 0 0 1338.5 30.6 A 15.25 15.25 0 0 0 1335.785 29.565 A 19.143 19.143 0 0 0 1333.95 29.15 A 29.34 29.34 0 0 0 1330.675 28.769 A 36.637 36.637 0 0 0 1328.4 28.7 A 25.146 25.146 0 0 0 1325.33 28.874 Q 1322.02 29.283 1320.082 30.651 A 6.924 6.924 0 0 0 1319.75 30.9 A 7.116 7.116 0 0 0 1317.033 36.088 A 9.82 9.82 0 0 0 1317 36.9 Q 1317 39.4 1318.15 41 A 7.971 7.971 0 0 0 1320.242 42.99 A 9.986 9.986 0 0 0 1321.3 43.6 Q 1323.3 44.6 1325.95 45.35 Q 1328.6 46.1 1331.5 46.7 Q 1334.7 47.4 1337.9 48.45 A 24.552 24.552 0 0 1 1342.079 50.248 A 21.46 21.46 0 0 1 1343.65 51.2 Q 1346.2 52.9 1347.75 55.6 A 10.988 10.988 0 0 1 1348.909 58.637 Q 1349.215 59.969 1349.281 61.517 A 20.508 20.508 0 0 1 1349.3 62.4 Q 1349.3 67.1 1346.9 70.75 A 14.524 14.524 0 0 1 1342.575 74.973 A 19.342 19.342 0 0 1 1339.8 76.45 A 22.743 22.743 0 0 1 1335.089 77.887 Q 1331.973 78.5 1328.2 78.5 A 66.193 66.193 0 0 1 1323.743 78.357 Q 1321.648 78.216 1319.779 77.934 A 40.4 40.4 0 0 1 1319.25 77.85 Q 1315.3 77.2 1312.25 76.05 Q 1309.2 74.9 1307 73.6 L 1307 60.5 L 1316 60.5 L 1316 74.3 Q 1314.892 73.746 1314.144 73.192 A 6.567 6.567 0 0 1 1313.55 72.7 A 5.96 5.96 0 0 1 1312.99 72.1 Q 1312.587 71.6 1312.4 71.1 A 4.801 4.801 0 0 1 1312.1 69.401 Q 1312.1 68.5 1312.3 67.6 A 13.58 13.58 0 0 0 1314.464 69.241 A 17.608 17.608 0 0 0 1316.25 70.2 A 22.556 22.556 0 0 0 1319.099 71.295 A 29.095 29.095 0 0 0 1321.6 71.95 A 28.309 28.309 0 0 0 1325.374 72.493 A 36.044 36.044 0 0 0 1328.2 72.6 A 27.781 27.781 0 0 0 1331.153 72.453 Q 1332.589 72.299 1333.811 71.985 A 13.589 13.589 0 0 0 1335.2 71.55 A 10.539 10.539 0 0 0 1337.374 70.452 A 7.885 7.885 0 0 0 1339.45 68.45 Q 1340.9 66.4 1340.9 63.3 A 8.268 8.268 0 0 0 1340.71 61.482 A 5.921 5.921 0 0 0 1339.75 59.3 A 7.971 7.971 0 0 0 1337.658 57.31 A 9.986 9.986 0 0 0 1336.6 56.7 A 20.399 20.399 0 0 0 1334.176 55.686 A 26.098 26.098 0 0 0 1332.05 55.05 Q 1329.5 54.4 1326.8 53.8 Q 1323.5 53 1320.3 52 A 23.736 23.736 0 0 1 1315.666 50.011 A 21.416 21.416 0 0 1 1314.5 49.3 Q 1311.9 47.6 1310.35 44.85 Q 1308.946 42.359 1308.814 38.759 A 20.71 20.71 0 0 1 1308.8 38 A 15.537 15.537 0 0 1 1309.43 33.5 A 13.25 13.25 0 0 1 1311.1 29.95 A 13.918 13.918 0 0 1 1315.432 25.828 A 18.197 18.197 0 0 1 1317.8 24.6 A 21.923 21.923 0 0 1 1322.567 23.19 Q 1324.748 22.792 1327.236 22.718 A 38.821 38.821 0 0 1 1328.4 22.7 A 67.62 67.62 0 0 1 1332.38 22.811 Q 1334.868 22.958 1336.95 23.3 Q 1339.727 23.757 1341.809 24.329 A 27.354 27.354 0 0 1 1343.05 24.7 A 36.861 36.861 0 0 1 1344.329 25.142 Q 1345.837 25.697 1346.7 26.2 Z M 1123 72.6 L 1138.3 31.2 Q 1138.2 30.6 1137 30.05 A 8.179 8.179 0 0 0 1135.881 29.64 Q 1135.303 29.471 1134.631 29.35 A 16.008 16.008 0 0 0 1134 29.25 Q 1132.2 29 1130.2 29 L 1129.7 29 L 1129.7 23.7 L 1152.5 23.7 L 1152.5 29 L 1152.1 29 A 15.614 15.614 0 0 0 1150.18 29.113 A 12.057 12.057 0 0 0 1148.65 29.4 Q 1147.1 29.8 1145.95 30.85 A 5.835 5.835 0 0 0 1145.073 31.877 Q 1144.704 32.418 1144.382 33.1 A 12.643 12.643 0 0 0 1144 34 L 1127.3 78 L 1117.6 78 L 1100.9 33.4 A 8.023 8.023 0 0 0 1100.38 32.17 Q 1100.018 31.49 1099.551 30.989 A 4.512 4.512 0 0 0 1099.2 30.65 A 5.86 5.86 0 0 0 1097.023 29.474 A 7.064 7.064 0 0 0 1096.55 29.35 A 12.868 12.868 0 0 0 1095.183 29.124 Q 1094.51 29.047 1093.747 29.018 A 25.024 25.024 0 0 0 1092.8 29 L 1092.4 29 L 1092.4 23.7 L 1117.6 23.7 L 1117.6 29 L 1117.1 29 Q 1114.9 29 1112.95 29.05 A 53.317 53.317 0 0 0 1111.692 29.096 Q 1111.131 29.124 1110.646 29.163 A 22.391 22.391 0 0 0 1109.75 29.25 A 6.083 6.083 0 0 0 1109.341 29.312 Q 1108.746 29.425 1108.572 29.623 A 0.263 0.263 0 0 0 1108.5 29.8 L 1124.4 73.6 L 1123 72.6 Z M 825.6 62.2 L 830.3 66.1 Q 828.3 69.7 825.15 72.55 Q 822 75.4 817.85 76.95 Q 813.7 78.5 808.5 78.5 A 35.263 35.263 0 0 1 801.512 77.84 A 26.121 26.121 0 0 1 793.85 75.05 Q 787.7 71.6 784.4 65.35 A 27.856 27.856 0 0 1 781.645 57.135 A 37.534 37.534 0 0 1 781.1 50.6 A 36.68 36.68 0 0 1 781.751 43.525 A 27.087 27.087 0 0 1 784.5 35.75 Q 787.9 29.5 794.15 26.1 Q 800.4 22.7 809 22.7 A 51.552 51.552 0 0 1 813.32 22.873 Q 815.95 23.094 818.2 23.6 A 53.54 53.54 0 0 1 821.017 24.31 Q 823.213 24.932 824.9 25.65 A 38.589 38.589 0 0 1 826.3 26.277 Q 827.938 27.053 828.8 27.7 L 828.8 42.9 L 819.8 42.9 L 819.8 30 Q 820.8 30.1 821.7 30.45 A 4.698 4.698 0 0 1 822.612 30.919 A 3.872 3.872 0 0 1 823.2 31.4 A 4.431 4.431 0 0 1 823.83 32.184 A 3.793 3.793 0 0 1 824.1 32.7 Q 824.4 33.4 824.4 34.2 Q 822.2 31.9 818.1 30.35 Q 814 28.8 809 28.8 Q 802.7 28.8 798.6 31.35 A 14.904 14.904 0 0 0 793.104 37.469 A 18.756 18.756 0 0 0 792.5 38.8 A 25.265 25.265 0 0 0 791.064 43.833 Q 790.615 46.305 790.523 49.134 A 45.428 45.428 0 0 0 790.5 50.6 Q 790.5 55.9 791.6 60 Q 792.7 64.1 794.95 66.9 Q 797.2 69.7 800.6 71.1 Q 803.774 72.407 808.082 72.494 A 30.701 30.701 0 0 0 808.7 72.5 A 21.651 21.651 0 0 0 812.19 72.233 Q 814.429 71.867 816.25 71 A 18.669 18.669 0 0 0 820.623 68.138 A 17.168 17.168 0 0 0 821.65 67.15 Q 823.9 64.8 825.6 62.2 Z M 1236.6 62.2 L 1241.3 66.1 Q 1239.3 69.7 1236.15 72.55 Q 1233 75.4 1228.85 76.95 Q 1224.7 78.5 1219.5 78.5 A 35.263 35.263 0 0 1 1212.512 77.84 A 26.121 26.121 0 0 1 1204.85 75.05 Q 1198.7 71.6 1195.4 65.35 A 27.856 27.856 0 0 1 1192.645 57.135 A 37.534 37.534 0 0 1 1192.1 50.6 A 36.68 36.68 0 0 1 1192.751 43.525 A 27.087 27.087 0 0 1 1195.5 35.75 Q 1198.9 29.5 1205.15 26.1 Q 1211.4 22.7 1220 22.7 A 51.552 51.552 0 0 1 1224.32 22.873 Q 1226.95 23.094 1229.2 23.6 A 53.54 53.54 0 0 1 1232.017 24.31 Q 1234.212 24.932 1235.9 25.65 A 38.589 38.589 0 0 1 1237.3 26.277 Q 1238.938 27.053 1239.8 27.7 L 1239.8 42.9 L 1230.8 42.9 L 1230.8 30 Q 1231.8 30.1 1232.7 30.45 A 4.698 4.698 0 0 1 1233.612 30.919 A 3.872 3.872 0 0 1 1234.2 31.4 A 4.431 4.431 0 0 1 1234.83 32.184 A 3.793 3.793 0 0 1 1235.1 32.7 Q 1235.4 33.4 1235.4 34.2 Q 1233.2 31.9 1229.1 30.35 Q 1225 28.8 1220 28.8 Q 1213.7 28.8 1209.6 31.35 A 14.904 14.904 0 0 0 1204.104 37.469 A 18.756 18.756 0 0 0 1203.5 38.8 A 25.265 25.265 0 0 0 1202.064 43.833 Q 1201.615 46.305 1201.523 49.134 A 45.428 45.428 0 0 0 1201.5 50.6 Q 1201.5 55.9 1202.6 60 Q 1203.7 64.1 1205.95 66.9 Q 1208.2 69.7 1211.6 71.1 Q 1214.774 72.407 1219.082 72.494 A 30.701 30.701 0 0 0 1219.7 72.5 A 21.651 21.651 0 0 0 1223.19 72.233 Q 1225.429 71.867 1227.25 71 A 18.669 18.669 0 0 0 1231.623 68.138 A 17.168 17.168 0 0 0 1232.65 67.15 Q 1234.9 64.8 1236.6 62.2 Z M 887.8 33.7 L 870.5 75.7 Q 868.247 81.172 866.059 85.349 A 74.595 74.595 0 0 1 865 87.3 A 47.783 47.783 0 0 1 862.781 90.887 Q 861.142 93.278 859.45 95 A 20.232 20.232 0 0 1 856.126 97.756 A 16.622 16.622 0 0 1 853.3 99.25 A 17.895 17.895 0 0 1 848.884 100.402 A 23.207 23.207 0 0 1 845.8 100.6 Q 843.19 100.6 841.14 100.086 A 13.919 13.919 0 0 1 841 100.05 A 19.225 19.225 0 0 1 839.785 99.692 Q 838.617 99.302 837.877 98.848 A 5.28 5.28 0 0 1 837.8 98.8 L 837.8 90.8 Q 838.1 90.9 839.25 91.35 A 14.584 14.584 0 0 0 840.197 91.681 Q 841.056 91.95 842.15 92.2 A 15.709 15.709 0 0 0 844.352 92.534 A 19.936 19.936 0 0 0 846 92.6 Q 848.5 92.6 850.85 91.9 Q 853.016 91.255 855.183 89.42 A 18.382 18.382 0 0 0 855.55 89.1 A 17.02 17.02 0 0 0 857.301 87.259 Q 858.791 85.46 860.3 82.85 A 49.729 49.729 0 0 0 862.095 79.419 Q 862.957 77.616 863.832 75.494 A 111.081 111.081 0 0 0 865.2 72 L 866 70.3 L 881.7 31.1 A 0.839 0.839 0 0 0 881.458 30.522 Q 881.208 30.249 880.7 30.031 A 4.504 4.504 0 0 0 880.5 29.95 A 9.734 9.734 0 0 0 879.507 29.642 Q 878.591 29.407 877.4 29.25 Q 875.5 29 873.5 29 L 873 29 L 873 23.7 L 896.5 23.7 L 896.5 29 L 895.9 29 A 14.923 14.923 0 0 0 893.089 29.259 A 13.618 13.618 0 0 0 892.65 29.35 Q 891.1 29.7 889.85 30.7 Q 888.6 31.7 887.8 33.7 Z M 122 77.4 L 106.1 77.4 L 104.9 65.8 L 104.4 65.2 L 104.4 39.1 A 23.574 23.574 0 0 0 104.287 36.716 Q 104.064 34.528 103.4 33 Q 102.4 30.7 100.05 29.7 Q 98.406 29.001 95.954 28.79 A 26.463 26.463 0 0 0 93.7 28.7 A 34.971 34.971 0 0 0 89.835 28.901 Q 87.846 29.123 86.173 29.589 A 16.243 16.243 0 0 0 83.9 30.4 Q 80.1 32.1 78.2 34 Q 78.2 33.2 78.6 32.35 A 6.079 6.079 0 0 1 79.448 31.035 A 7.068 7.068 0 0 1 79.7 30.75 Q 80.4 30 81.35 29.5 A 6.679 6.679 0 0 1 82.774 28.955 A 8.159 8.159 0 0 1 83.5 28.8 L 83.5 40.4 L 74.7 40.4 L 74.7 28.2 A 12.735 12.735 0 0 1 75.697 27.498 Q 76.846 26.762 78.511 25.964 A 41.991 41.991 0 0 1 78.75 25.85 A 26.198 26.198 0 0 1 81.109 24.884 Q 82.398 24.424 83.896 24.013 A 50.64 50.64 0 0 1 85.3 23.65 A 32.389 32.389 0 0 1 89.726 22.909 A 43.787 43.787 0 0 1 94.1 22.7 Q 98.1 22.7 101.6 23.5 A 19.034 19.034 0 0 1 105.253 24.717 A 15.749 15.749 0 0 1 107.7 26.1 Q 110.3 27.9 111.8 30.8 Q 113.159 33.428 113.287 37.124 A 22.521 22.521 0 0 1 113.3 37.9 L 113.3 68.1 A 3.144 3.144 0 0 0 113.45 69.093 A 2.546 2.546 0 0 0 114.3 70.3 A 4.678 4.678 0 0 0 115.286 70.895 Q 115.769 71.116 116.357 71.277 A 9.987 9.987 0 0 0 117.1 71.45 A 41.875 41.875 0 0 0 118.563 71.706 Q 119.219 71.809 119.953 71.908 A 83.81 83.81 0 0 0 121.5 72.1 L 122 72.2 L 122 77.4 Z M 222.9 77.4 L 207 77.4 L 205.8 65.8 L 205.3 65.2 L 205.3 39.1 A 23.574 23.574 0 0 0 205.187 36.716 Q 204.964 34.528 204.3 33 Q 203.3 30.7 200.95 29.7 Q 199.306 29.001 196.854 28.79 A 26.463 26.463 0 0 0 194.6 28.7 A 34.971 34.971 0 0 0 190.735 28.901 Q 188.746 29.123 187.073 29.589 A 16.243 16.243 0 0 0 184.8 30.4 Q 181 32.1 179.1 34 Q 179.1 33.2 179.5 32.35 A 6.079 6.079 0 0 1 180.348 31.035 A 7.068 7.068 0 0 1 180.6 30.75 Q 181.3 30 182.25 29.5 A 6.679 6.679 0 0 1 183.674 28.955 A 8.159 8.159 0 0 1 184.4 28.8 L 184.4 40.4 L 175.6 40.4 L 175.6 28.2 A 12.735 12.735 0 0 1 176.597 27.498 Q 177.746 26.762 179.411 25.964 A 41.991 41.991 0 0 1 179.65 25.85 A 26.198 26.198 0 0 1 182.009 24.884 Q 183.298 24.424 184.796 24.013 A 50.64 50.64 0 0 1 186.2 23.65 A 32.389 32.389 0 0 1 190.626 22.909 A 43.787 43.787 0 0 1 195 22.7 Q 199 22.7 202.5 23.5 A 19.034 19.034 0 0 1 206.153 24.717 A 15.749 15.749 0 0 1 208.6 26.1 Q 211.2 27.9 212.7 30.8 Q 214.059 33.428 214.187 37.124 A 22.521 22.521 0 0 1 214.2 37.9 L 214.2 68.1 A 3.144 3.144 0 0 0 214.35 69.093 A 2.546 2.546 0 0 0 215.2 70.3 A 4.678 4.678 0 0 0 216.186 70.895 Q 216.669 71.116 217.257 71.277 A 9.987 9.987 0 0 0 218 71.45 A 41.875 41.875 0 0 0 219.463 71.706 Q 220.119 71.809 220.853 71.908 A 83.81 83.81 0 0 0 222.4 72.1 L 222.9 72.2 L 222.9 77.4 Z M 706.9 77.4 L 691 77.4 L 689.8 65.8 L 689.3 65.2 L 689.3 39.1 A 23.574 23.574 0 0 0 689.187 36.716 Q 688.964 34.528 688.3 33 Q 687.3 30.7 684.95 29.7 Q 683.306 29.001 680.854 28.79 A 26.463 26.463 0 0 0 678.6 28.7 A 34.971 34.971 0 0 0 674.735 28.901 Q 672.746 29.123 671.073 29.589 A 16.243 16.243 0 0 0 668.8 30.4 Q 665 32.1 663.1 34 Q 663.1 33.2 663.5 32.35 A 6.079 6.079 0 0 1 664.348 31.035 A 7.068 7.068 0 0 1 664.6 30.75 Q 665.3 30 666.25 29.5 A 6.679 6.679 0 0 1 667.674 28.955 A 8.159 8.159 0 0 1 668.4 28.8 L 668.4 40.4 L 659.6 40.4 L 659.6 28.2 A 12.735 12.735 0 0 1 660.597 27.498 Q 661.746 26.762 663.411 25.964 A 41.991 41.991 0 0 1 663.65 25.85 A 26.198 26.198 0 0 1 666.009 24.884 Q 667.298 24.424 668.796 24.013 A 50.64 50.64 0 0 1 670.2 23.65 A 32.389 32.389 0 0 1 674.626 22.909 A 43.787 43.787 0 0 1 679 22.7 Q 683 22.7 686.5 23.5 A 19.034 19.034 0 0 1 690.153 24.717 A 15.749 15.749 0 0 1 692.6 26.1 Q 695.2 27.9 696.7 30.8 Q 698.059 33.428 698.187 37.124 A 22.521 22.521 0 0 1 698.2 37.9 L 698.2 68.1 A 3.144 3.144 0 0 0 698.35 69.093 A 2.546 2.546 0 0 0 699.2 70.3 A 4.678 4.678 0 0 0 700.186 70.895 Q 700.669 71.116 701.257 71.277 A 9.987 9.987 0 0 0 702 71.45 A 41.875 41.875 0 0 0 703.463 71.706 Q 704.119 71.809 704.853 71.908 A 83.81 83.81 0 0 0 706.4 72.1 L 706.9 72.2 L 706.9 77.4 Z M 578.9 1.6 L 596.5 1.6 L 596.5 67.5 A 6.419 6.419 0 0 0 596.662 68.999 Q 596.904 70.005 597.506 70.683 A 3.648 3.648 0 0 0 598.8 71.6 A 10.317 10.317 0 0 0 600.705 72.2 Q 601.676 72.413 602.827 72.512 A 25.247 25.247 0 0 0 605 72.6 L 605.3 72.6 L 605.3 77.4 L 578.9 77.4 L 578.9 72.6 L 579.3 72.6 Q 581.817 72.6 583.647 72.184 A 9.792 9.792 0 0 0 585.45 71.6 A 3.563 3.563 0 0 0 587.532 69.039 Q 587.695 68.37 587.7 67.553 A 8.462 8.462 0 0 0 587.7 67.5 L 587.7 11.5 Q 587.7 10.407 587.249 9.712 A 2.243 2.243 0 0 0 586.85 9.25 Q 586.251 8.721 585.228 8.317 A 10.83 10.83 0 0 0 584.3 8 A 29.043 29.043 0 0 0 583.013 7.657 Q 581.672 7.328 579.9 7 L 578.9 6.8 L 578.9 1.6 Z M 454.7 72.6 L 454.7 77.4 L 429.5 77.4 L 429.5 72.6 L 429.8 72.6 Q 431.2 72.6 432.9 72.5 A 28.365 28.365 0 0 0 434.112 72.404 Q 434.77 72.337 435.345 72.242 A 15.163 15.163 0 0 0 435.85 72.15 A 8.538 8.538 0 0 0 436.243 72.063 Q 437.1 71.849 437.1 71.6 L 437.1 38.9 A 21.175 21.175 0 0 0 437 36.773 Q 436.892 35.707 436.668 34.805 A 9.691 9.691 0 0 0 436.25 33.5 Q 435.4 31.4 433.5 30.35 A 7.455 7.455 0 0 0 431.742 29.67 Q 430.3 29.3 428.4 29.3 Q 425.1 29.3 421.95 30.6 A 20.307 20.307 0 0 0 417.949 32.833 A 25.461 25.461 0 0 0 415.85 34.5 A 33.624 33.624 0 0 0 413.259 37.062 Q 411.588 38.894 409.9 41.2 L 409.9 35.8 Q 412.8 31.5 416 28.6 A 24.53 24.53 0 0 1 420.613 25.274 A 21.665 21.665 0 0 1 422.85 24.2 Q 426.5 22.7 430.7 22.7 A 24.224 24.224 0 0 1 434.292 22.952 Q 436.249 23.246 437.885 23.883 A 13.459 13.459 0 0 1 438.95 24.35 Q 442.3 26 444.15 29.35 A 13.805 13.805 0 0 1 445.478 32.875 Q 445.865 34.52 445.965 36.436 A 26.209 26.209 0 0 1 446 37.8 L 446 67 A 7.807 7.807 0 0 0 446.113 68.371 Q 446.336 69.62 447 70.45 A 4.531 4.531 0 0 0 448.644 71.721 A 6.445 6.445 0 0 0 449.9 72.15 A 15.447 15.447 0 0 0 451.696 72.458 Q 452.938 72.6 454.4 72.6 L 454.7 72.6 Z M 773.6 72.6 L 773.6 77.4 L 748.4 77.4 L 748.4 72.6 L 748.7 72.6 Q 750.1 72.6 751.8 72.5 A 28.365 28.365 0 0 0 753.012 72.404 Q 753.67 72.337 754.245 72.242 A 15.163 15.163 0 0 0 754.75 72.15 A 8.538 8.538 0 0 0 755.143 72.063 Q 756 71.849 756 71.6 L 756 38.9 A 21.175 21.175 0 0 0 755.9 36.773 Q 755.792 35.707 755.568 34.805 A 9.691 9.691 0 0 0 755.15 33.5 Q 754.3 31.4 752.4 30.35 A 7.455 7.455 0 0 0 750.642 29.67 Q 749.2 29.3 747.3 29.3 Q 744 29.3 740.85 30.6 A 20.307 20.307 0 0 0 736.849 32.833 A 25.461 25.461 0 0 0 734.75 34.5 A 33.624 33.624 0 0 0 732.159 37.062 Q 730.488 38.894 728.8 41.2 L 728.8 35.8 Q 731.7 31.5 734.9 28.6 A 24.53 24.53 0 0 1 739.513 25.274 A 21.665 21.665 0 0 1 741.75 24.2 Q 745.4 22.7 749.6 22.7 A 24.224 24.224 0 0 1 753.192 22.952 Q 755.149 23.246 756.785 23.883 A 13.459 13.459 0 0 1 757.85 24.35 Q 761.2 26 763.05 29.35 A 13.805 13.805 0 0 1 764.378 32.875 Q 764.765 34.52 764.865 36.436 A 26.209 26.209 0 0 1 764.9 37.8 L 764.9 67 A 7.807 7.807 0 0 0 765.013 68.371 Q 765.236 69.62 765.9 70.45 A 4.531 4.531 0 0 0 767.544 71.721 A 6.445 6.445 0 0 0 768.8 72.15 A 15.447 15.447 0 0 0 770.596 72.458 Q 771.838 72.6 773.3 72.6 L 773.6 72.6 Z M 511.2 23.7 L 529.3 23.7 L 529.3 62.2 Q 529.3 65.4 530.15 67.55 Q 531 69.7 532.85 70.75 A 7.071 7.071 0 0 0 534.539 71.42 Q 535.347 71.634 536.309 71.728 A 16.481 16.481 0 0 0 537.9 71.8 Q 541.2 71.8 544.25 70.5 A 20.244 20.244 0 0 0 547.825 68.506 A 26.351 26.351 0 0 0 550.25 66.6 Q 553.014 64.164 555.734 60.499 A 55.436 55.436 0 0 0 556.1 60 L 556.1 65.4 A 43.654 43.654 0 0 1 552.933 69.605 A 34.07 34.07 0 0 1 550.15 72.5 A 24.14 24.14 0 0 1 545.66 75.796 A 21.207 21.207 0 0 1 543.4 76.9 A 19.767 19.767 0 0 1 536.641 78.377 A 22.915 22.915 0 0 1 535.6 78.4 A 22.617 22.617 0 0 1 531.727 78.084 A 16.354 16.354 0 0 1 527.45 76.75 Q 524 75.1 522.2 71.7 Q 520.569 68.619 520.416 64.224 A 26.559 26.559 0 0 1 520.4 63.3 L 520.4 33.6 Q 520.4 31.529 518.715 30.61 A 4.24 4.24 0 0 0 518.5 30.5 Q 516.6 29.6 512.7 29.1 L 511.2 28.9 L 511.2 23.7 Z M 144.9 8.4 L 144.9 61.1 A 23.949 23.949 0 0 0 145.017 63.549 Q 145.275 66.05 146.1 67.7 A 7.461 7.461 0 0 0 147.658 69.829 A 6.738 6.738 0 0 0 149.6 71.1 Q 151.738 72.03 154.654 72.095 A 19.883 19.883 0 0 0 155.1 72.1 Q 157.7 72.1 159.9 71.75 Q 161.804 71.447 162.659 71.257 A 9.663 9.663 0 0 0 162.9 71.2 L 162.9 77.2 Q 162.213 77.407 161.289 77.613 A 40.889 40.889 0 0 1 160.4 77.8 Q 158.9 78.1 157.3 78.3 Q 155.7 78.5 154 78.5 A 27.955 27.955 0 0 1 147.42 77.745 A 25.074 25.074 0 0 1 145.2 77.1 Q 141.1 75.7 138.55 71.95 Q 136 68.2 136 61.2 L 136 25.2 L 136.7 24.4 L 136.7 8.4 L 144.9 8.4 Z M 628.9 8.4 L 628.9 61.1 A 23.949 23.949 0 0 0 629.017 63.549 Q 629.275 66.05 630.1 67.7 A 7.461 7.461 0 0 0 631.658 69.829 A 6.738 6.738 0 0 0 633.6 71.1 Q 635.738 72.03 638.654 72.095 A 19.883 19.883 0 0 0 639.1 72.1 Q 641.7 72.1 643.9 71.75 Q 645.804 71.447 646.659 71.257 A 9.663 9.663 0 0 0 646.9 71.2 L 646.9 77.2 Q 646.213 77.407 645.289 77.613 A 40.889 40.889 0 0 1 644.4 77.8 Q 642.9 78.1 641.3 78.3 Q 639.7 78.5 638 78.5 A 27.955 27.955 0 0 1 631.42 77.745 A 25.074 25.074 0 0 1 629.2 77.1 Q 625.1 75.7 622.55 71.95 Q 620 68.2 620 61.2 L 620 25.2 L 620.7 24.4 L 620.7 8.4 L 628.9 8.4 Z M 384.365 58.082 A 36.345 36.345 0 0 0 385.1 50.6 A 38.767 38.767 0 0 0 384.833 45.976 A 30.43 30.43 0 0 0 383.2 39.05 A 27.928 27.928 0 0 0 382.829 38.098 A 24.074 24.074 0 0 0 377.7 30.25 Q 374.1 26.6 369.2 24.65 Q 364.3 22.7 358.2 22.7 A 34.904 34.904 0 0 0 354.321 22.91 A 27.951 27.951 0 0 0 347.15 24.65 Q 342.2 26.6 338.6 30.25 A 23.132 23.132 0 0 0 336.906 32.169 A 24.98 24.98 0 0 0 333.1 39.05 A 29.466 29.466 0 0 0 331.736 44.153 A 37.179 37.179 0 0 0 331.2 50.6 A 37.534 37.534 0 0 0 331.671 56.666 A 28.147 28.147 0 0 0 334.55 65.4 Q 337.9 71.7 343.95 75.1 A 25.551 25.551 0 0 0 350.985 77.753 A 33.302 33.302 0 0 0 358.2 78.5 A 34.282 34.282 0 0 0 363.295 78.134 A 26.275 26.275 0 0 0 372.35 75.1 Q 378.4 71.7 381.75 65.4 A 27.575 27.575 0 0 0 384.365 58.082 Z M 1078 77.4 L 1050.2 77.4 L 1050.2 72.6 L 1050.5 72.6 A 22.588 22.588 0 0 0 1052.776 72.493 Q 1053.931 72.376 1054.893 72.13 A 9.126 9.126 0 0 0 1056.65 71.5 Q 1058.7 70.498 1058.882 67.586 A 9.39 9.39 0 0 0 1058.9 67 L 1058.9 33.6 Q 1058.9 32.507 1058.449 31.812 A 2.243 2.243 0 0 0 1058.05 31.35 Q 1057.451 30.821 1056.428 30.417 A 10.83 10.83 0 0 0 1055.5 30.1 A 31.955 31.955 0 0 0 1054.13 29.733 Q 1053.488 29.575 1052.755 29.417 A 70.058 70.058 0 0 0 1051.2 29.1 L 1050.2 28.9 L 1050.2 23.7 L 1066.2 23.7 L 1067.4 37.1 L 1067.8 36.7 L 1067.8 70.4 Q 1067.8 71.3 1069.2 71.8 A 10.538 10.538 0 0 0 1070.622 72.192 Q 1071.355 72.343 1072.188 72.423 A 18.144 18.144 0 0 0 1072.5 72.45 A 56.469 56.469 0 0 0 1073.855 72.542 Q 1074.925 72.6 1075.8 72.6 L 1078 72.6 L 1078 77.4 Z M 106.3 44.7 L 106.3 50 Q 101.63 50.613 97.956 51.343 A 80.544 80.544 0 0 0 95.8 51.8 Q 92.474 52.556 90.005 53.426 A 30.176 30.176 0 0 0 88.5 54 A 22.34 22.34 0 0 0 86.494 54.942 Q 85.537 55.455 84.763 56.014 A 11.273 11.273 0 0 0 83.9 56.7 Q 82.2 58.2 81.5 60.1 A 11.523 11.523 0 0 0 80.818 63.512 A 13.401 13.401 0 0 0 80.8 64.2 A 11.288 11.288 0 0 0 80.989 66.322 Q 81.231 67.589 81.785 68.613 A 6.871 6.871 0 0 0 81.95 68.9 Q 83.1 70.8 85.2 71.75 A 10.383 10.383 0 0 0 87.784 72.518 A 14.087 14.087 0 0 0 90.1 72.7 Q 93.3 72.7 96 71.2 Q 98.531 69.794 100.887 67.069 A 26.716 26.716 0 0 0 101.2 66.7 Q 103.348 64.122 105.423 60.436 A 62.117 62.117 0 0 0 106.1 59.2 L 106.2 65.1 A 34.21 34.21 0 0 1 103.596 69.581 A 28.154 28.154 0 0 1 101.55 72.2 A 19.9 19.9 0 0 1 97.032 76.033 A 18.36 18.36 0 0 1 95.55 76.85 Q 92.2 78.5 88 78.5 A 23.784 23.784 0 0 1 83.541 78.101 A 18.306 18.306 0 0 1 79.5 76.85 A 13.566 13.566 0 0 1 75.169 73.849 A 12.901 12.901 0 0 1 73.7 72 A 12.637 12.637 0 0 1 71.826 67.113 A 16.855 16.855 0 0 1 71.6 64.3 A 15.626 15.626 0 0 1 72.042 60.504 A 12.42 12.42 0 0 1 73.5 57 Q 75.4 53.9 79.55 51.6 Q 82.687 49.862 87.223 48.466 A 69.016 69.016 0 0 1 90.3 47.6 A 96.592 96.592 0 0 1 95.644 46.396 Q 98.632 45.805 102.048 45.29 A 190.585 190.585 0 0 1 106.3 44.7 Z M 207.2 44.7 L 207.2 50 Q 202.53 50.613 198.856 51.343 A 80.544 80.544 0 0 0 196.7 51.8 Q 193.374 52.556 190.905 53.426 A 30.176 30.176 0 0 0 189.4 54 A 22.34 22.34 0 0 0 187.394 54.942 Q 186.437 55.455 185.663 56.014 A 11.273 11.273 0 0 0 184.8 56.7 Q 183.1 58.2 182.4 60.1 A 11.523 11.523 0 0 0 181.718 63.512 A 13.401 13.401 0 0 0 181.7 64.2 A 11.288 11.288 0 0 0 181.889 66.322 Q 182.131 67.589 182.685 68.613 A 6.871 6.871 0 0 0 182.85 68.9 Q 184 70.8 186.1 71.75 A 10.383 10.383 0 0 0 188.684 72.518 A 14.087 14.087 0 0 0 191 72.7 Q 194.2 72.7 196.9 71.2 Q 199.431 69.794 201.787 67.069 A 26.716 26.716 0 0 0 202.1 66.7 Q 204.248 64.122 206.323 60.436 A 62.117 62.117 0 0 0 207 59.2 L 207.1 65.1 A 34.21 34.21 0 0 1 204.496 69.581 A 28.154 28.154 0 0 1 202.45 72.2 A 19.9 19.9 0 0 1 197.932 76.033 A 18.36 18.36 0 0 1 196.45 76.85 Q 193.1 78.5 188.9 78.5 A 23.784 23.784 0 0 1 184.441 78.101 A 18.306 18.306 0 0 1 180.4 76.85 A 13.566 13.566 0 0 1 176.069 73.849 A 12.901 12.901 0 0 1 174.6 72 A 12.637 12.637 0 0 1 172.726 67.113 A 16.855 16.855 0 0 1 172.5 64.3 A 15.626 15.626 0 0 1 172.942 60.504 A 12.42 12.42 0 0 1 174.4 57 Q 176.3 53.9 180.45 51.6 Q 183.587 49.862 188.123 48.466 A 69.016 69.016 0 0 1 191.2 47.6 A 96.592 96.592 0 0 1 196.544 46.396 Q 199.532 45.805 202.948 45.29 A 190.585 190.585 0 0 1 207.2 44.7 Z M 691.2 44.7 L 691.2 50 Q 686.53 50.613 682.856 51.343 A 80.544 80.544 0 0 0 680.7 51.8 Q 677.374 52.556 674.905 53.426 A 30.176 30.176 0 0 0 673.4 54 A 22.34 22.34 0 0 0 671.394 54.942 Q 670.437 55.455 669.663 56.014 A 11.273 11.273 0 0 0 668.8 56.7 Q 667.1 58.2 666.4 60.1 A 11.523 11.523 0 0 0 665.718 63.512 A 13.401 13.401 0 0 0 665.7 64.2 A 11.288 11.288 0 0 0 665.889 66.322 Q 666.131 67.589 666.685 68.613 A 6.871 6.871 0 0 0 666.85 68.9 Q 668 70.8 670.1 71.75 A 10.383 10.383 0 0 0 672.684 72.518 A 14.087 14.087 0 0 0 675 72.7 Q 678.2 72.7 680.9 71.2 Q 683.431 69.794 685.787 67.069 A 26.716 26.716 0 0 0 686.1 66.7 Q 688.248 64.122 690.323 60.436 A 62.117 62.117 0 0 0 691 59.2 L 691.1 65.1 A 34.21 34.21 0 0 1 688.496 69.581 A 28.154 28.154 0 0 1 686.45 72.2 A 19.9 19.9 0 0 1 681.932 76.033 A 18.36 18.36 0 0 1 680.45 76.85 Q 677.1 78.5 672.9 78.5 A 23.784 23.784 0 0 1 668.441 78.101 A 18.306 18.306 0 0 1 664.4 76.85 A 13.566 13.566 0 0 1 660.069 73.849 A 12.901 12.901 0 0 1 658.6 72 A 12.637 12.637 0 0 1 656.726 67.113 A 16.855 16.855 0 0 1 656.5 64.3 A 15.626 15.626 0 0 1 656.942 60.504 A 12.42 12.42 0 0 1 658.4 57 Q 660.3 53.9 664.45 51.6 Q 667.587 49.862 672.123 48.466 A 69.016 69.016 0 0 1 675.2 47.6 A 96.592 96.592 0 0 1 680.544 46.396 Q 683.532 45.805 686.948 45.29 A 190.585 190.585 0 0 1 691.2 44.7 Z M 1158 23.7 L 1175.6 23.7 L 1175.6 67.5 A 6.419 6.419 0 0 0 1175.762 68.999 Q 1176.004 70.005 1176.606 70.683 A 3.648 3.648 0 0 0 1177.9 71.6 A 10.317 10.317 0 0 0 1179.805 72.2 Q 1180.776 72.413 1181.927 72.512 A 25.247 25.247 0 0 0 1184.1 72.6 L 1184.4 72.6 L 1184.4 77.4 L 1158 77.4 L 1158 72.6 L 1158.3 72.6 A 24.741 24.741 0 0 0 1160.687 72.493 Q 1161.821 72.382 1162.774 72.159 A 10.101 10.101 0 0 0 1164.5 71.6 Q 1166.79 70.605 1166.8 67.527 A 8.317 8.317 0 0 0 1166.8 67.5 L 1166.8 33.6 Q 1166.8 31.486 1165.045 30.711 A 3.939 3.939 0 0 0 1164.9 30.65 A 16.866 16.866 0 0 0 1163.665 30.224 Q 1161.875 29.675 1159 29.1 L 1158 28.9 L 1158 23.7 Z M 419.3 77.4 L 394.1 77.4 L 394.1 72.6 L 394.4 72.6 A 25.422 25.422 0 0 0 396.397 72.526 Q 397.385 72.448 398.246 72.288 A 13.704 13.704 0 0 0 398.9 72.15 A 6.357 6.357 0 0 0 400.247 71.677 A 4.5 4.5 0 0 0 401.8 70.45 A 4.234 4.234 0 0 0 402.546 68.976 Q 402.8 68.109 402.8 67 L 402.8 33.6 Q 402.8 32.507 402.349 31.812 A 2.243 2.243 0 0 0 401.95 31.35 Q 401.351 30.821 400.328 30.417 A 10.83 10.83 0 0 0 399.4 30.1 A 31.955 31.955 0 0 0 398.03 29.733 Q 397.388 29.575 396.655 29.417 A 70.058 70.058 0 0 0 395.1 29.1 L 394.1 28.9 L 394.1 23.7 L 410.1 23.7 L 411.3 35.1 L 411.7 35.6 L 411.7 71.6 Q 411.7 71.899 412.886 72.147 A 10.17 10.17 0 0 0 412.9 72.15 A 15.065 15.065 0 0 0 413.958 72.329 Q 414.478 72.399 415.068 72.448 A 29.368 29.368 0 0 0 415.8 72.5 Q 417.5 72.6 418.9 72.6 L 419.3 72.6 L 419.3 77.4 Z M 738.2 77.4 L 713 77.4 L 713 72.6 L 713.3 72.6 A 25.422 25.422 0 0 0 715.297 72.526 Q 716.285 72.448 717.146 72.288 A 13.704 13.704 0 0 0 717.8 72.15 A 6.357 6.357 0 0 0 719.147 71.677 A 4.5 4.5 0 0 0 720.7 70.45 A 4.234 4.234 0 0 0 721.446 68.976 Q 721.7 68.109 721.7 67 L 721.7 33.6 Q 721.7 32.507 721.249 31.812 A 2.243 2.243 0 0 0 720.85 31.35 Q 720.251 30.821 719.228 30.417 A 10.83 10.83 0 0 0 718.3 30.1 A 31.955 31.955 0 0 0 716.93 29.733 Q 716.288 29.575 715.555 29.417 A 70.058 70.058 0 0 0 714 29.1 L 713 28.9 L 713 23.7 L 729 23.7 L 730.2 35.1 L 730.6 35.6 L 730.6 71.6 Q 730.6 71.899 731.786 72.147 A 10.17 10.17 0 0 0 731.8 72.15 A 15.065 15.065 0 0 0 732.858 72.329 Q 733.378 72.399 733.968 72.448 A 29.368 29.368 0 0 0 734.7 72.5 Q 736.4 72.6 737.8 72.6 L 738.2 72.6 L 738.2 77.4 Z M 851.9 29.8 L 869.1 73 L 868 76.7 L 863.1 79.7 L 843.7 32.3 A 5.608 5.608 0 0 0 843.114 31.244 A 4.108 4.108 0 0 0 842.05 30.2 A 5.58 5.58 0 0 0 840.793 29.584 Q 840.215 29.381 839.54 29.265 A 9.305 9.305 0 0 0 839.45 29.25 Q 838.119 29.036 836.384 29.005 A 33.355 33.355 0 0 0 835.8 29 L 835.2 29 L 835.2 23.7 L 860.8 23.7 L 860.8 29 L 860.3 29 Q 858.3 29 856.35 29.05 A 53.317 53.317 0 0 0 855.092 29.096 Q 854.531 29.124 854.046 29.163 A 22.391 22.391 0 0 0 853.15 29.25 A 6.083 6.083 0 0 0 852.741 29.312 Q 852.146 29.425 851.972 29.623 A 0.263 0.263 0 0 0 851.9 29.8 Z M 544 23.7 L 563.2 23.7 L 563.2 68.1 A 3.144 3.144 0 0 0 563.35 69.093 A 2.546 2.546 0 0 0 564.2 70.3 Q 564.956 70.905 566.197 71.281 A 10.85 10.85 0 0 0 567.05 71.5 A 26.293 26.293 0 0 0 568.793 71.812 Q 569.694 71.944 570.71 72.04 A 47.464 47.464 0 0 0 571.4 72.1 L 572 72.2 L 572 77.4 L 555.9 77.4 L 554.7 65.7 L 554.3 65.1 L 554.3 33.6 Q 554.3 31.586 552.665 30.661 A 4.305 4.305 0 0 0 552.35 30.5 Q 550.4 29.6 546.4 29.2 L 544 28.9 L 544 23.7 Z M 340.6 50.6 A 43.268 43.268 0 0 0 340.881 55.677 Q 341.196 58.338 341.864 60.594 A 22.375 22.375 0 0 0 342.6 62.7 Q 344.6 67.6 348.5 70.05 A 15.386 15.386 0 0 0 353.469 72.027 Q 355.651 72.5 358.2 72.5 A 22.732 22.732 0 0 0 362.52 72.111 Q 365.175 71.598 367.303 70.405 A 13.869 13.869 0 0 0 367.9 70.05 Q 371.8 67.6 373.75 62.7 Q 375.357 58.662 375.64 53.06 A 48.857 48.857 0 0 0 375.7 50.6 Q 375.7 43.6 373.75 38.75 A 17.192 17.192 0 0 0 371.335 34.504 A 14.309 14.309 0 0 0 367.9 31.35 Q 364 28.8 358.2 28.8 A 21.8 21.8 0 0 0 353.811 29.219 Q 350.96 29.805 348.719 31.21 A 13.706 13.706 0 0 0 348.5 31.35 A 15.021 15.021 0 0 0 343.566 36.738 A 19.228 19.228 0 0 0 342.6 38.75 A 24.632 24.632 0 0 0 341.181 43.678 Q 340.745 46.04 340.636 48.753 A 46.047 46.047 0 0 0 340.6 50.6 Z M 162.3 29.7 L 125.3 29.7 L 125.3 24.2 L 126.4 24.2 Q 128.936 24.2 130.86 23.95 A 19.718 19.718 0 0 0 132.1 23.75 Q 134.019 23.375 135.137 22.338 A 4.435 4.435 0 0 0 135.55 21.9 Q 136.4 20.866 136.622 19.066 A 11.19 11.19 0 0 0 136.7 17.7 L 143.2 23.7 L 162.3 23.7 L 162.3 29.7 Z M 646.3 29.7 L 609.3 29.7 L 609.3 24.2 L 610.4 24.2 Q 612.936 24.2 614.86 23.95 A 19.718 19.718 0 0 0 616.1 23.75 Q 618.019 23.375 619.137 22.338 A 4.435 4.435 0 0 0 619.55 21.9 Q 620.4 20.866 620.622 19.066 A 11.19 11.19 0 0 0 620.7 17.7 L 627.2 23.7 L 646.3 23.7 L 646.3 29.7 Z M 1087.9 23 L 1087.9 32.6 A 7.348 7.348 0 0 0 1087.282 32.454 Q 1086.794 32.36 1086.2 32.3 Q 1085.2 32.2 1084.15 32.1 A 21.625 21.625 0 0 0 1082.102 32 L 1082.1 32 A 24.389 24.389 0 0 0 1079.528 32.129 A 17.734 17.734 0 0 0 1077.1 32.55 Q 1074.9 33.1 1073.05 34.25 Q 1071.2 35.4 1069.55 37.2 A 40.788 40.788 0 0 0 1068.058 38.928 Q 1067.316 39.835 1066.529 40.885 A 72.847 72.847 0 0 0 1066 41.6 L 1066 37 A 57.886 57.886 0 0 1 1068.216 33.175 Q 1069.389 31.327 1070.593 29.792 A 33.524 33.524 0 0 1 1071.15 29.1 Q 1073.8 25.9 1077 24.25 A 14.913 14.913 0 0 1 1082.488 22.679 A 18.215 18.215 0 0 1 1084.2 22.6 A 25.578 25.578 0 0 1 1085.641 22.639 A 21.063 21.063 0 0 1 1086.45 22.7 A 10.896 10.896 0 0 1 1086.934 22.757 Q 1087.368 22.818 1087.646 22.902 A 1.647 1.647 0 0 1 1087.9 23 Z M 1168.441 12.466 A 8.571 8.571 0 0 0 1170.5 12.7 A 8.78 8.78 0 0 0 1171.72 12.618 A 6.501 6.501 0 0 0 1175.15 11.1 Q 1176.422 10 1176.819 8.144 A 8.811 8.811 0 0 0 1177 6.3 A 10.179 10.179 0 0 0 1176.999 6.127 Q 1176.948 3.155 1175.15 1.6 A 6.326 6.326 0 0 0 1172.693 0.285 A 8.073 8.073 0 0 0 1170.5 0 Q 1167.6 0 1165.8 1.6 A 4.87 4.87 0 0 0 1165.116 2.348 Q 1164.46 3.237 1164.189 4.448 A 8.502 8.502 0 0 0 1164 6.3 Q 1164 7.65 1164.32 8.716 A 5.062 5.062 0 0 0 1165.8 11.1 A 6.113 6.113 0 0 0 1168.441 12.466 Z" vector-effect="non-scaling-stroke"/></g></svg>