<svg width="652.6" height="101.7" viewBox="0 0 652.6 101.7" xmlns="http://www.w3.org/2000/svg"><g id="svgGroup" stroke-linecap="round" fill-rule="evenodd" font-size="9pt" stroke="#f9faf6" stroke-width="0.35mm" fill="#eff5ef" style="stroke:#f9faf6;stroke-width:0.35mm;fill:#eff5ef"><path d="M 536.9 62.3 L 541.7 66.2 A 24.374 24.374 0 0 1 536.893 72.372 A 27.341 27.341 0 0 1 536.7 72.55 Q 533.6 75.4 529.45 76.95 A 24.416 24.416 0 0 1 523.594 78.317 A 30.59 30.59 0 0 1 520.2 78.5 Q 512.6 78.5 506.5 75.3 Q 500.4 72.1 496.85 65.9 A 26.171 26.171 0 0 1 493.886 57.656 A 36.069 36.069 0 0 1 493.3 51 A 37.586 37.586 0 0 1 494.014 43.504 A 28.533 28.533 0 0 1 496.55 36.15 Q 499.8 29.8 505.45 26.25 A 23.239 23.239 0 0 1 516.159 22.787 A 28.533 28.533 0 0 1 518.4 22.7 A 30.78 30.78 0 0 1 523.256 23.064 Q 525.953 23.495 528.219 24.437 A 18.722 18.722 0 0 1 528.6 24.6 Q 532.9 26.5 535.8 30.3 A 23.142 23.142 0 0 1 538.553 35.025 A 32.009 32.009 0 0 1 540.2 39.8 Q 541.551 44.933 541.685 51.605 A 74.183 74.183 0 0 1 541.7 53.1 L 500.3 53.1 L 500.3 47.3 L 535.1 47.3 L 532.5 49.5 A 76.814 76.814 0 0 0 532.259 45.471 Q 531.981 42.319 531.45 39.85 Q 530.783 36.749 529.622 34.572 A 12.722 12.722 0 0 0 528.95 33.45 Q 527.3 31 524.7 29.9 A 13.022 13.022 0 0 0 522.021 29.111 Q 520.728 28.868 519.245 28.815 A 23.634 23.634 0 0 0 518.4 28.8 A 15.843 15.843 0 0 0 513.701 29.483 A 14.441 14.441 0 0 0 511.95 30.15 A 13.188 13.188 0 0 0 507.471 33.541 A 15.807 15.807 0 0 0 506.85 34.3 A 17.332 17.332 0 0 0 504.848 37.67 Q 504.113 39.28 503.584 41.178 A 28.287 28.287 0 0 0 503.55 41.3 A 30.496 30.496 0 0 0 502.725 45.545 Q 502.461 47.642 502.411 49.999 A 52.535 52.535 0 0 0 502.4 51.1 A 41.64 41.64 0 0 0 502.621 55.512 Q 502.854 57.701 503.336 59.579 A 22.045 22.045 0 0 0 503.75 61 A 19.75 19.75 0 0 0 505.151 64.282 A 14.4 14.4 0 0 0 507.6 67.6 Q 510.1 70.1 513.35 71.3 A 19.632 19.632 0 0 0 518.937 72.455 A 23.099 23.099 0 0 0 520.4 72.5 Q 524.6 72.5 527.7 71 A 19.308 19.308 0 0 0 532.172 68.039 A 17.813 17.813 0 0 0 533.05 67.2 Q 535.3 64.9 536.9 62.3 Z M 481.4 26.2 L 481.4 38.8 L 472.6 38.8 L 472.6 28.4 A 5.644 5.644 0 0 1 473.455 28.462 Q 473.925 28.534 474.324 28.69 A 3.526 3.526 0 0 1 474.35 28.7 Q 475.1 29 475.55 29.55 Q 475.948 30.036 476.189 30.796 A 5.78 5.78 0 0 1 476.25 31 A 4.931 4.931 0 0 1 476.414 31.977 Q 476.449 32.465 476.4 33 A 8.882 8.882 0 0 0 474.797 31.552 A 11.996 11.996 0 0 0 473.2 30.6 A 15.25 15.25 0 0 0 470.485 29.565 A 19.143 19.143 0 0 0 468.65 29.15 A 29.34 29.34 0 0 0 465.375 28.769 A 36.637 36.637 0 0 0 463.1 28.7 A 25.146 25.146 0 0 0 460.03 28.874 Q 456.72 29.283 454.782 30.651 A 6.924 6.924 0 0 0 454.45 30.9 A 7.116 7.116 0 0 0 451.733 36.088 A 9.82 9.82 0 0 0 451.7 36.9 Q 451.7 39.4 452.85 41 A 7.971 7.971 0 0 0 454.942 42.99 A 9.986 9.986 0 0 0 456 43.6 Q 458 44.6 460.65 45.35 Q 463.3 46.1 466.2 46.7 Q 469.4 47.4 472.6 48.45 A 24.552 24.552 0 0 1 476.779 50.248 A 21.46 21.46 0 0 1 478.35 51.2 Q 480.9 52.9 482.45 55.6 A 10.988 10.988 0 0 1 483.609 58.637 Q 483.915 59.969 483.981 61.517 A 20.508 20.508 0 0 1 484 62.4 Q 484 67.1 481.6 70.75 A 14.524 14.524 0 0 1 477.275 74.973 A 19.342 19.342 0 0 1 474.5 76.45 A 22.743 22.743 0 0 1 469.789 77.887 Q 466.673 78.5 462.9 78.5 A 66.193 66.193 0 0 1 458.443 78.357 Q 456.348 78.216 454.479 77.934 A 40.4 40.4 0 0 1 453.95 77.85 Q 450 77.2 446.95 76.05 Q 443.9 74.9 441.7 73.6 L 441.7 60.5 L 450.7 60.5 L 450.7 74.3 Q 449.592 73.746 448.844 73.192 A 6.567 6.567 0 0 1 448.25 72.7 A 5.96 5.96 0 0 1 447.69 72.1 Q 447.287 71.6 447.1 71.1 A 4.801 4.801 0 0 1 446.8 69.401 Q 446.8 68.5 447 67.6 A 13.58 13.58 0 0 0 449.164 69.241 A 17.608 17.608 0 0 0 450.95 70.2 A 22.556 22.556 0 0 0 453.799 71.295 A 29.095 29.095 0 0 0 456.3 71.95 A 28.309 28.309 0 0 0 460.074 72.493 A 36.044 36.044 0 0 0 462.9 72.6 A 27.781 27.781 0 0 0 465.853 72.453 Q 467.289 72.299 468.511 71.985 A 13.589 13.589 0 0 0 469.9 71.55 A 10.539 10.539 0 0 0 472.074 70.452 A 7.885 7.885 0 0 0 474.15 68.45 Q 475.6 66.4 475.6 63.3 A 8.268 8.268 0 0 0 475.41 61.482 A 5.921 5.921 0 0 0 474.45 59.3 A 7.971 7.971 0 0 0 472.358 57.31 A 9.986 9.986 0 0 0 471.3 56.7 A 20.399 20.399 0 0 0 468.876 55.686 A 26.098 26.098 0 0 0 466.75 55.05 Q 464.2 54.4 461.5 53.8 Q 458.2 53 455 52 A 23.736 23.736 0 0 1 450.366 50.011 A 21.416 21.416 0 0 1 449.2 49.3 Q 446.6 47.6 445.05 44.85 Q 443.646 42.359 443.514 38.759 A 20.71 20.71 0 0 1 443.5 38 A 15.537 15.537 0 0 1 444.13 33.5 A 13.25 13.25 0 0 1 445.8 29.95 A 13.918 13.918 0 0 1 450.132 25.828 A 18.197 18.197 0 0 1 452.5 24.6 A 21.923 21.923 0 0 1 457.267 23.19 Q 459.448 22.792 461.936 22.718 A 38.821 38.821 0 0 1 463.1 22.7 A 67.62 67.62 0 0 1 467.08 22.811 Q 469.568 22.958 471.65 23.3 Q 474.427 23.757 476.509 24.329 A 27.354 27.354 0 0 1 477.75 24.7 A 36.861 36.861 0 0 1 479.029 25.142 Q 480.537 25.697 481.4 26.2 Z M 311.2 12.4 L 295.8 12.4 L 295.8 69.6 A 1.265 1.265 0 0 0 296.298 70.62 A 2.124 2.124 0 0 0 296.65 70.85 A 5.616 5.616 0 0 0 297.415 71.18 Q 298.043 71.401 298.85 71.55 Q 300.189 71.798 301.873 71.849 A 27.035 27.035 0 0 0 301.9 71.85 Q 303.6 71.9 305.3 71.9 L 307.2 71.9 L 307.2 77.4 L 277 77.4 L 277 71.9 L 278.1 71.9 A 32.485 32.485 0 0 0 280.49 71.818 Q 282.625 71.66 284.2 71.2 Q 286.433 70.549 286.588 68.599 A 3.763 3.763 0 0 0 286.6 68.3 L 286.6 15.4 A 3.03 3.03 0 0 0 286.342 14.118 Q 285.999 13.374 285.2 12.915 A 4.563 4.563 0 0 0 284.2 12.5 A 15.265 15.265 0 0 0 282.217 12.074 Q 281.202 11.92 280.026 11.853 A 33.767 33.767 0 0 0 278.1 11.8 L 277 11.8 L 277 6.4 L 330.8 6.4 L 330.8 26.3 L 324.8 26.3 L 323.7 16.8 Q 323.5 15 322.2 14.05 A 5.157 5.157 0 0 0 321.141 13.468 Q 320.059 13.016 318.461 12.786 A 18.462 18.462 0 0 0 318.2 12.75 Q 316.386 12.515 313.85 12.438 A 87.404 87.404 0 0 0 311.2 12.4 Z M 623.1 72.6 L 638.4 31.2 Q 638.3 30.6 637.1 30.05 A 8.179 8.179 0 0 0 635.981 29.64 Q 635.403 29.471 634.731 29.35 A 16.008 16.008 0 0 0 634.1 29.25 Q 632.3 29 630.3 29 L 629.8 29 L 629.8 23.7 L 652.6 23.7 L 652.6 29 L 652.2 29 A 15.614 15.614 0 0 0 650.28 29.113 A 12.057 12.057 0 0 0 648.75 29.4 Q 647.2 29.8 646.05 30.85 A 5.835 5.835 0 0 0 645.173 31.877 Q 644.804 32.418 644.482 33.1 A 12.643 12.643 0 0 0 644.1 34 L 627.4 78 L 617.7 78 L 601 33.4 A 8.023 8.023 0 0 0 600.48 32.17 Q 600.118 31.49 599.651 30.989 A 4.512 4.512 0 0 0 599.3 30.65 A 5.86 5.86 0 0 0 597.123 29.474 A 7.064 7.064 0 0 0 596.65 29.35 A 12.868 12.868 0 0 0 595.283 29.124 Q 594.61 29.047 593.847 29.018 A 25.024 25.024 0 0 0 592.9 29 L 592.5 29 L 592.5 23.7 L 617.7 23.7 L 617.7 29 L 617.2 29 Q 615 29 613.05 29.05 A 53.317 53.317 0 0 0 611.792 29.096 Q 611.231 29.124 610.746 29.163 A 22.391 22.391 0 0 0 609.85 29.25 A 6.083 6.083 0 0 0 609.441 29.312 Q 608.846 29.425 608.672 29.623 A 0.263 0.263 0 0 0 608.6 29.8 L 624.5 73.6 L 623.1 72.6 Z M 0 6.4 L 32.1 6.4 A 45.127 45.127 0 0 1 36.993 6.653 Q 39.534 6.93 41.757 7.512 A 28.002 28.002 0 0 1 41.9 7.55 A 22.923 22.923 0 0 1 45.624 8.881 A 17.22 17.22 0 0 1 49.1 11 Q 52 13.3 53.55 16.7 A 17.145 17.145 0 0 1 54.941 21.738 A 21.669 21.669 0 0 1 55.1 24.4 A 15.371 15.371 0 0 1 54.02 30.201 A 14.554 14.554 0 0 1 52.65 32.8 A 14.328 14.328 0 0 1 48.505 36.864 A 19.557 19.557 0 0 1 45.3 38.55 A 24.29 24.29 0 0 1 40.572 39.952 Q 38.288 40.398 35.66 40.537 A 46.479 46.479 0 0 1 33.2 40.6 L 37.7 37.8 L 37.7 42.3 L 33.6 39.5 A 48.723 48.723 0 0 1 39.461 39.906 Q 42.395 40.3 44.882 41.071 A 25.37 25.37 0 0 1 47.05 41.85 A 22.589 22.589 0 0 1 51.287 44.121 A 16.549 16.549 0 0 1 55.35 48.05 A 15.026 15.026 0 0 1 58.064 55.168 A 19.438 19.438 0 0 1 58.2 57.5 A 23.064 23.064 0 0 1 57.778 62.009 A 17.893 17.893 0 0 1 56.5 66 Q 54.8 69.7 51.6 72.25 A 19.899 19.899 0 0 1 47.098 74.922 A 25.901 25.901 0 0 1 43.75 76.1 Q 39.1 77.4 33.1 77.4 L 0 77.4 L 0 71.9 L 1.1 71.9 A 32.485 32.485 0 0 0 3.49 71.818 Q 5.625 71.66 7.2 71.2 Q 9.433 70.549 9.588 68.599 A 3.763 3.763 0 0 0 9.6 68.3 L 9.6 15.4 A 3.03 3.03 0 0 0 9.342 14.118 Q 8.999 13.374 8.2 12.915 A 4.563 4.563 0 0 0 7.2 12.5 A 15.265 15.265 0 0 0 5.217 12.074 Q 4.202 11.92 3.026 11.853 A 33.767 33.767 0 0 0 1.1 11.8 L 0 11.8 L 0 6.4 Z M 120.7 77.4 L 104.8 77.4 L 103.6 65.8 L 103.1 65.2 L 103.1 39.1 A 23.574 23.574 0 0 0 102.987 36.716 Q 102.764 34.528 102.1 33 Q 101.1 30.7 98.75 29.7 Q 97.106 29.001 94.654 28.79 A 26.463 26.463 0 0 0 92.4 28.7 A 34.971 34.971 0 0 0 88.535 28.901 Q 86.546 29.123 84.873 29.589 A 16.243 16.243 0 0 0 82.6 30.4 Q 78.8 32.1 76.9 34 Q 76.9 33.2 77.3 32.35 A 6.079 6.079 0 0 1 78.148 31.035 A 7.068 7.068 0 0 1 78.4 30.75 Q 79.1 30 80.05 29.5 A 6.679 6.679 0 0 1 81.474 28.955 A 8.159 8.159 0 0 1 82.2 28.8 L 82.2 40.4 L 73.4 40.4 L 73.4 28.2 A 12.735 12.735 0 0 1 74.397 27.498 Q 75.546 26.762 77.211 25.964 A 41.991 41.991 0 0 1 77.45 25.85 A 26.198 26.198 0 0 1 79.809 24.884 Q 81.098 24.424 82.596 24.013 A 50.64 50.64 0 0 1 84 23.65 A 32.389 32.389 0 0 1 88.426 22.909 A 43.787 43.787 0 0 1 92.8 22.7 Q 96.8 22.7 100.3 23.5 A 19.034 19.034 0 0 1 103.953 24.717 A 15.749 15.749 0 0 1 106.4 26.1 Q 109 27.9 110.5 30.8 Q 111.859 33.428 111.987 37.124 A 22.521 22.521 0 0 1 112 37.9 L 112 68.1 A 3.144 3.144 0 0 0 112.15 69.093 A 2.546 2.546 0 0 0 113 70.3 A 4.678 4.678 0 0 0 113.986 70.895 Q 114.469 71.116 115.057 71.277 A 9.987 9.987 0 0 0 115.8 71.45 A 41.875 41.875 0 0 0 117.263 71.706 Q 117.919 71.809 118.653 71.908 A 83.81 83.81 0 0 0 120.2 72.1 L 120.7 72.2 L 120.7 77.4 Z M 211.4 77.4 L 195.5 77.4 L 194.3 65.8 L 193.8 65.2 L 193.8 39.1 A 23.574 23.574 0 0 0 193.687 36.716 Q 193.464 34.528 192.8 33 Q 191.8 30.7 189.45 29.7 Q 187.806 29.001 185.354 28.79 A 26.463 26.463 0 0 0 183.1 28.7 A 34.971 34.971 0 0 0 179.235 28.901 Q 177.246 29.123 175.573 29.589 A 16.243 16.243 0 0 0 173.3 30.4 Q 169.5 32.1 167.6 34 Q 167.6 33.2 168 32.35 A 6.079 6.079 0 0 1 168.848 31.035 A 7.068 7.068 0 0 1 169.1 30.75 Q 169.8 30 170.75 29.5 A 6.679 6.679 0 0 1 172.174 28.955 A 8.159 8.159 0 0 1 172.9 28.8 L 172.9 40.4 L 164.1 40.4 L 164.1 28.2 A 12.735 12.735 0 0 1 165.097 27.498 Q 166.246 26.762 167.911 25.964 A 41.991 41.991 0 0 1 168.15 25.85 A 26.198 26.198 0 0 1 170.509 24.884 Q 171.798 24.424 173.296 24.013 A 50.64 50.64 0 0 1 174.7 23.65 A 32.389 32.389 0 0 1 179.126 22.909 A 43.787 43.787 0 0 1 183.5 22.7 Q 187.5 22.7 191 23.5 A 19.034 19.034 0 0 1 194.653 24.717 A 15.749 15.749 0 0 1 197.1 26.1 Q 199.7 27.9 201.2 30.8 Q 202.559 33.428 202.687 37.124 A 22.521 22.521 0 0 1 202.7 37.9 L 202.7 68.1 A 3.144 3.144 0 0 0 202.85 69.093 A 2.546 2.546 0 0 0 203.7 70.3 A 4.678 4.678 0 0 0 204.686 70.895 Q 205.169 71.116 205.757 71.277 A 9.987 9.987 0 0 0 206.5 71.45 A 41.875 41.875 0 0 0 207.963 71.706 Q 208.619 71.809 209.353 71.908 A 83.81 83.81 0 0 0 210.9 72.1 L 211.4 72.2 L 211.4 77.4 Z M 135.8 83.6 L 135.8 33.6 Q 135.8 32.1 134.8 31.25 A 4.906 4.906 0 0 0 133.916 30.662 Q 133.069 30.213 131.85 29.9 A 26.228 26.228 0 0 0 130.071 29.514 Q 128.761 29.274 127.2 29.1 L 125.6 28.9 L 125.6 23.7 L 144.6 23.7 L 144.6 83.6 Q 144.6 87.909 143.501 91.085 A 15.055 15.055 0 0 1 143 92.35 Q 141.4 95.9 138.65 97.9 Q 135.9 99.9 132.5 100.8 Q 129.1 101.7 125.6 101.7 A 33.182 33.182 0 0 1 120.45 101.3 Q 118.24 100.954 116.969 100.532 A 8.388 8.388 0 0 1 116.6 100.4 L 116.6 94.1 A 31.553 31.553 0 0 0 118.304 94.547 Q 119.331 94.788 120.5 95 Q 122.63 95.388 125.323 95.4 A 38.814 38.814 0 0 0 125.5 95.4 Q 128.462 95.4 130.652 94.501 A 9.79 9.79 0 0 0 131 94.35 Q 133.3 93.3 134.55 90.7 A 10.858 10.858 0 0 0 135.309 88.496 Q 135.57 87.394 135.692 86.081 A 26.799 26.799 0 0 0 135.8 83.6 Z M 226.5 83.6 L 226.5 33.6 Q 226.5 32.1 225.5 31.25 A 4.906 4.906 0 0 0 224.616 30.662 Q 223.769 30.213 222.55 29.9 A 26.228 26.228 0 0 0 220.771 29.514 Q 219.461 29.274 217.9 29.1 L 216.3 28.9 L 216.3 23.7 L 235.3 23.7 L 235.3 83.6 Q 235.3 87.909 234.201 91.085 A 15.055 15.055 0 0 1 233.7 92.35 Q 232.1 95.9 229.35 97.9 Q 226.6 99.9 223.2 100.8 Q 219.8 101.7 216.3 101.7 A 33.182 33.182 0 0 1 211.15 101.3 Q 208.94 100.954 207.669 100.532 A 8.388 8.388 0 0 1 207.3 100.4 L 207.3 94.1 A 31.553 31.553 0 0 0 209.004 94.547 Q 210.031 94.788 211.2 95 Q 213.33 95.388 216.023 95.4 A 38.814 38.814 0 0 0 216.2 95.4 Q 219.162 95.4 221.352 94.501 A 9.79 9.79 0 0 0 221.7 94.35 Q 224 93.3 225.25 90.7 A 10.858 10.858 0 0 0 226.009 88.496 Q 226.27 87.394 226.392 86.081 A 26.799 26.799 0 0 0 226.5 83.6 Z M 15.8 43.1 L 15.8 37.3 L 31.9 37.3 A 26.296 26.296 0 0 0 35.05 37.123 Q 37.848 36.785 39.85 35.8 Q 42.9 34.3 44.25 31.4 Q 45.56 28.585 45.599 24.734 A 23.418 23.418 0 0 0 45.6 24.5 Q 45.6 20.962 44.407 18.412 A 10.367 10.367 0 0 0 44.15 17.9 A 9.574 9.574 0 0 0 40.157 13.96 A 11.817 11.817 0 0 0 39.75 13.75 A 12.396 12.396 0 0 0 37.148 12.839 Q 35.875 12.536 34.374 12.403 A 28.188 28.188 0 0 0 31.9 12.3 L 18.9 12.3 L 18.9 71.4 L 32.9 71.4 Q 38.3 71.4 41.75 69.8 A 11.232 11.232 0 0 0 45.061 67.511 A 10.26 10.26 0 0 0 46.85 65.05 A 13.837 13.837 0 0 0 48.137 61.322 Q 48.5 59.51 48.5 57.4 A 19.903 19.903 0 0 0 48.186 53.773 Q 47.77 51.525 46.8 49.7 Q 45.1 46.5 41.55 44.8 Q 38.823 43.495 34.828 43.192 A 33.485 33.485 0 0 0 32.3 43.1 L 15.8 43.1 Z M 434.5 72.6 L 434.5 77.4 L 409.3 77.4 L 409.3 72.6 L 409.6 72.6 Q 411 72.6 412.7 72.5 A 28.365 28.365 0 0 0 413.912 72.404 Q 414.57 72.337 415.145 72.242 A 15.163 15.163 0 0 0 415.65 72.15 A 8.538 8.538 0 0 0 416.043 72.063 Q 416.9 71.849 416.9 71.6 L 416.9 38.9 A 21.175 21.175 0 0 0 416.8 36.773 Q 416.692 35.707 416.468 34.805 A 9.691 9.691 0 0 0 416.05 33.5 Q 415.2 31.4 413.3 30.35 A 7.455 7.455 0 0 0 411.542 29.67 Q 410.1 29.3 408.2 29.3 Q 404.9 29.3 401.75 30.6 A 20.307 20.307 0 0 0 397.749 32.833 A 25.461 25.461 0 0 0 395.65 34.5 A 33.624 33.624 0 0 0 393.059 37.062 Q 391.388 38.894 389.7 41.2 L 389.7 35.8 Q 392.6 31.5 395.8 28.6 A 24.53 24.53 0 0 1 400.413 25.274 A 21.665 21.665 0 0 1 402.65 24.2 Q 406.3 22.7 410.5 22.7 A 24.224 24.224 0 0 1 414.092 22.952 Q 416.049 23.246 417.685 23.883 A 13.459 13.459 0 0 1 418.75 24.35 Q 422.1 26 423.95 29.35 A 13.805 13.805 0 0 1 425.278 32.875 Q 425.665 34.52 425.765 36.436 A 26.209 26.209 0 0 1 425.8 37.8 L 425.8 67 A 7.807 7.807 0 0 0 425.913 68.371 Q 426.136 69.62 426.8 70.45 A 4.531 4.531 0 0 0 428.444 71.721 A 6.445 6.445 0 0 0 429.7 72.15 A 15.447 15.447 0 0 0 431.496 72.458 Q 432.738 72.6 434.2 72.6 L 434.5 72.6 Z M 578.1 77.4 L 550.3 77.4 L 550.3 72.6 L 550.6 72.6 A 22.588 22.588 0 0 0 552.876 72.493 Q 554.031 72.376 554.993 72.13 A 9.126 9.126 0 0 0 556.75 71.5 Q 558.8 70.498 558.982 67.586 A 9.39 9.39 0 0 0 559 67 L 559 33.6 Q 559 32.507 558.549 31.812 A 2.243 2.243 0 0 0 558.15 31.35 Q 557.551 30.821 556.528 30.417 A 10.83 10.83 0 0 0 555.6 30.1 A 31.955 31.955 0 0 0 554.23 29.733 Q 553.588 29.575 552.855 29.417 A 70.058 70.058 0 0 0 551.3 29.1 L 550.3 28.9 L 550.3 23.7 L 566.3 23.7 L 567.5 37.1 L 567.9 36.7 L 567.9 70.4 Q 567.9 71.3 569.3 71.8 A 10.538 10.538 0 0 0 570.722 72.192 Q 571.455 72.343 572.288 72.423 A 18.144 18.144 0 0 0 572.6 72.45 A 56.469 56.469 0 0 0 573.955 72.542 Q 575.025 72.6 575.9 72.6 L 578.1 72.6 L 578.1 77.4 Z M 105 44.7 L 105 50 Q 100.33 50.613 96.656 51.343 A 80.544 80.544 0 0 0 94.5 51.8 Q 91.174 52.556 88.705 53.426 A 30.176 30.176 0 0 0 87.2 54 A 22.34 22.34 0 0 0 85.194 54.942 Q 84.237 55.455 83.463 56.014 A 11.273 11.273 0 0 0 82.6 56.7 Q 80.9 58.2 80.2 60.1 A 11.523 11.523 0 0 0 79.518 63.512 A 13.401 13.401 0 0 0 79.5 64.2 A 11.288 11.288 0 0 0 79.689 66.322 Q 79.931 67.589 80.485 68.613 A 6.871 6.871 0 0 0 80.65 68.9 Q 81.8 70.8 83.9 71.75 A 10.383 10.383 0 0 0 86.484 72.518 A 14.087 14.087 0 0 0 88.8 72.7 Q 92 72.7 94.7 71.2 Q 97.231 69.794 99.587 67.069 A 26.716 26.716 0 0 0 99.9 66.7 Q 102.048 64.122 104.123 60.436 A 62.117 62.117 0 0 0 104.8 59.2 L 104.9 65.1 A 34.21 34.21 0 0 1 102.296 69.581 A 28.154 28.154 0 0 1 100.25 72.2 A 19.9 19.9 0 0 1 95.732 76.033 A 18.36 18.36 0 0 1 94.25 76.85 Q 90.9 78.5 86.7 78.5 A 23.784 23.784 0 0 1 82.241 78.101 A 18.306 18.306 0 0 1 78.2 76.85 A 13.566 13.566 0 0 1 73.869 73.849 A 12.901 12.901 0 0 1 72.4 72 A 12.637 12.637 0 0 1 70.526 67.113 A 16.855 16.855 0 0 1 70.3 64.3 A 15.626 15.626 0 0 1 70.742 60.504 A 12.42 12.42 0 0 1 72.2 57 Q 74.1 53.9 78.25 51.6 Q 81.387 49.862 85.923 48.466 A 69.016 69.016 0 0 1 89 47.6 A 96.592 96.592 0 0 1 94.344 46.396 Q 97.332 45.805 100.748 45.29 A 190.585 190.585 0 0 1 105 44.7 Z M 195.7 44.7 L 195.7 50 Q 191.03 50.613 187.356 51.343 A 80.544 80.544 0 0 0 185.2 51.8 Q 181.874 52.556 179.405 53.426 A 30.176 30.176 0 0 0 177.9 54 A 22.34 22.34 0 0 0 175.894 54.942 Q 174.937 55.455 174.163 56.014 A 11.273 11.273 0 0 0 173.3 56.7 Q 171.6 58.2 170.9 60.1 A 11.523 11.523 0 0 0 170.218 63.512 A 13.401 13.401 0 0 0 170.2 64.2 A 11.288 11.288 0 0 0 170.389 66.322 Q 170.631 67.589 171.185 68.613 A 6.871 6.871 0 0 0 171.35 68.9 Q 172.5 70.8 174.6 71.75 A 10.383 10.383 0 0 0 177.184 72.518 A 14.087 14.087 0 0 0 179.5 72.7 Q 182.7 72.7 185.4 71.2 Q 187.931 69.794 190.287 67.069 A 26.716 26.716 0 0 0 190.6 66.7 Q 192.748 64.122 194.823 60.436 A 62.117 62.117 0 0 0 195.5 59.2 L 195.6 65.1 A 34.21 34.21 0 0 1 192.996 69.581 A 28.154 28.154 0 0 1 190.95 72.2 A 19.9 19.9 0 0 1 186.432 76.033 A 18.36 18.36 0 0 1 184.95 76.85 Q 181.6 78.5 177.4 78.5 A 23.784 23.784 0 0 1 172.941 78.101 A 18.306 18.306 0 0 1 168.9 76.85 A 13.566 13.566 0 0 1 164.569 73.849 A 12.901 12.901 0 0 1 163.1 72 A 12.637 12.637 0 0 1 161.226 67.113 A 16.855 16.855 0 0 1 161 64.3 A 15.626 15.626 0 0 1 161.442 60.504 A 12.42 12.42 0 0 1 162.9 57 Q 164.8 53.9 168.95 51.6 Q 172.087 49.862 176.623 48.466 A 69.016 69.016 0 0 1 179.7 47.6 A 96.592 96.592 0 0 1 185.044 46.396 Q 188.032 45.805 191.448 45.29 A 190.585 190.585 0 0 1 195.7 44.7 Z M 340.4 23.7 L 358 23.7 L 358 67.5 A 6.419 6.419 0 0 0 358.162 68.999 Q 358.404 70.005 359.006 70.683 A 3.648 3.648 0 0 0 360.3 71.6 A 10.317 10.317 0 0 0 362.205 72.2 Q 363.176 72.413 364.327 72.512 A 25.247 25.247 0 0 0 366.5 72.6 L 366.8 72.6 L 366.8 77.4 L 340.4 77.4 L 340.4 72.6 L 340.7 72.6 A 24.741 24.741 0 0 0 343.087 72.493 Q 344.221 72.382 345.174 72.159 A 10.101 10.101 0 0 0 346.9 71.6 Q 349.19 70.605 349.2 67.527 A 8.317 8.317 0 0 0 349.2 67.5 L 349.2 33.6 Q 349.2 31.486 347.445 30.711 A 3.939 3.939 0 0 0 347.3 30.65 A 16.866 16.866 0 0 0 346.065 30.224 Q 344.275 29.675 341.4 29.1 L 340.4 28.9 L 340.4 23.7 Z M 399.1 77.4 L 373.9 77.4 L 373.9 72.6 L 374.2 72.6 A 25.422 25.422 0 0 0 376.197 72.526 Q 377.185 72.448 378.046 72.288 A 13.704 13.704 0 0 0 378.7 72.15 A 6.357 6.357 0 0 0 380.047 71.677 A 4.5 4.5 0 0 0 381.6 70.45 A 4.234 4.234 0 0 0 382.346 68.976 Q 382.6 68.109 382.6 67 L 382.6 33.6 Q 382.6 32.507 382.149 31.812 A 2.243 2.243 0 0 0 381.75 31.35 Q 381.151 30.821 380.128 30.417 A 10.83 10.83 0 0 0 379.2 30.1 A 31.955 31.955 0 0 0 377.83 29.733 Q 377.188 29.575 376.455 29.417 A 70.058 70.058 0 0 0 374.9 29.1 L 373.9 28.9 L 373.9 23.7 L 389.9 23.7 L 391.1 35.1 L 391.5 35.6 L 391.5 71.6 Q 391.5 71.899 392.686 72.147 A 10.17 10.17 0 0 0 392.7 72.15 A 15.065 15.065 0 0 0 393.758 72.329 Q 394.278 72.399 394.868 72.448 A 29.368 29.368 0 0 0 395.6 72.5 Q 397.3 72.6 398.7 72.6 L 399.1 72.6 L 399.1 77.4 Z M 293.5 44.6 L 293.5 39 Q 298.2 38.8 302.85 38.6 L 312.15 38.2 Q 316.8 38 321.4 37.9 L 321.4 45.8 Q 316.8 45.5 312.15 45.3 L 302.85 44.9 Q 298.2 44.7 293.5 44.6 Z M 588 23 L 588 32.6 A 7.348 7.348 0 0 0 587.382 32.454 Q 586.894 32.36 586.3 32.3 Q 585.3 32.2 584.25 32.1 A 21.625 21.625 0 0 0 582.202 32 L 582.2 32 A 24.389 24.389 0 0 0 579.628 32.129 A 17.734 17.734 0 0 0 577.2 32.55 Q 575 33.1 573.15 34.25 Q 571.3 35.4 569.65 37.2 A 40.788 40.788 0 0 0 568.158 38.928 Q 567.416 39.835 566.629 40.885 A 72.847 72.847 0 0 0 566.1 41.6 L 566.1 37 A 57.886 57.886 0 0 1 568.316 33.175 Q 569.489 31.327 570.693 29.792 A 33.524 33.524 0 0 1 571.25 29.1 Q 573.9 25.9 577.1 24.25 A 14.913 14.913 0 0 1 582.588 22.679 A 18.215 18.215 0 0 1 584.3 22.6 A 25.578 25.578 0 0 1 585.741 22.639 A 21.063 21.063 0 0 1 586.55 22.7 A 10.896 10.896 0 0 1 587.034 22.757 Q 587.468 22.818 587.746 22.902 A 1.647 1.647 0 0 1 588 23 Z M 350.841 12.466 A 8.571 8.571 0 0 0 352.9 12.7 A 8.78 8.78 0 0 0 354.12 12.618 A 6.501 6.501 0 0 0 357.55 11.1 Q 358.822 10 359.219 8.144 A 8.811 8.811 0 0 0 359.4 6.3 A 10.179 10.179 0 0 0 359.399 6.127 Q 359.348 3.155 357.55 1.6 A 6.326 6.326 0 0 0 355.093 0.285 A 8.073 8.073 0 0 0 352.9 0 Q 350 0 348.2 1.6 A 4.87 4.87 0 0 0 347.516 2.348 Q 346.86 3.237 346.589 4.448 A 8.502 8.502 0 0 0 346.4 6.3 Q 346.4 7.65 346.72 8.716 A 5.062 5.062 0 0 0 348.2 11.1 A 6.113 6.113 0 0 0 350.841 12.466 Z M 137.207 12.416 A 8.073 8.073 0 0 0 139.4 12.7 A 8.78 8.78 0 0 0 140.62 12.618 A 6.501 6.501 0 0 0 144.05 11.1 Q 145.322 10 145.719 8.144 A 8.811 8.811 0 0 0 145.9 6.3 A 10.179 10.179 0 0 0 145.899 6.127 Q 145.848 3.155 144.05 1.6 A 6.326 6.326 0 0 0 141.593 0.285 A 8.073 8.073 0 0 0 139.4 0 A 8.78 8.78 0 0 0 138.18 0.082 A 6.501 6.501 0 0 0 134.75 1.6 Q 133.505 2.677 133.098 4.432 A 8.265 8.265 0 0 0 132.9 6.3 A 10.469 10.469 0 0 0 132.91 6.769 Q 133.038 9.62 134.75 11.1 A 6.326 6.326 0 0 0 137.207 12.416 Z M 227.907 12.416 A 8.073 8.073 0 0 0 230.1 12.7 A 8.78 8.78 0 0 0 231.32 12.618 A 6.501 6.501 0 0 0 234.75 11.1 Q 236.022 10 236.419 8.144 A 8.811 8.811 0 0 0 236.6 6.3 A 10.179 10.179 0 0 0 236.599 6.127 Q 236.548 3.155 234.75 1.6 A 6.326 6.326 0 0 0 232.293 0.285 A 8.073 8.073 0 0 0 230.1 0 A 8.78 8.78 0 0 0 228.88 0.082 A 6.501 6.501 0 0 0 225.45 1.6 Q 224.205 2.677 223.798 4.432 A 8.265 8.265 0 0 0 223.6 6.3 A 10.469 10.469 0 0 0 223.61 6.769 Q 223.738 9.62 225.45 11.1 A 6.326 6.326 0 0 0 227.907 12.416 Z" vector-effect="non-scaling-stroke"/></g></svg>