<svg width="552.1" height="77.5" viewBox="0 0 552.1 77.5" xmlns="http://www.w3.org/2000/svg"><g id="svgGroup" stroke-linecap="round" fill-rule="evenodd" font-size="9pt" stroke="#f9faf6" stroke-width="0.35mm" fill="#eff5ef" style="stroke:#f9faf6;stroke-width:0.35mm;fill:#eff5ef"><path d="M 99.3 50.8 L 105.5 53.3 A 39.859 39.859 0 0 1 101.894 61.989 A 34.687 34.687 0 0 1 99.2 66.05 Q 95 71.5 88.8 74.5 Q 82.6 77.5 74.6 77.5 A 41.146 41.146 0 0 1 65.959 76.624 A 34.452 34.452 0 0 1 60.55 75 Q 54.2 72.5 49.6 67.65 A 31.842 31.842 0 0 1 43.544 58.415 A 37.805 37.805 0 0 1 42.55 55.9 Q 40.1 49 40.1 40.3 Q 40.1 31.5 42.65 24.6 A 35.477 35.477 0 0 1 46.638 16.795 A 30.75 30.75 0 0 1 49.8 12.9 Q 54.4 8.1 60.55 5.55 A 33.992 33.992 0 0 1 72.861 3.011 A 39.021 39.021 0 0 1 73.8 3 A 35.056 35.056 0 0 1 79.561 3.45 Q 82.814 3.992 85.539 5.188 A 21.682 21.682 0 0 1 85.9 5.35 Q 91 7.7 94.3 12.2 A 24.519 24.519 0 0 1 97.505 18.262 A 32.998 32.998 0 0 1 98.9 23.3 L 96 20.7 L 97.4 4.3 L 103.9 4.3 L 103.9 28.1 L 96.9 28.1 A 35.178 35.178 0 0 0 94.622 22.235 A 28.208 28.208 0 0 0 92.1 18.1 Q 89 13.9 84.45 11.6 A 21.127 21.127 0 0 0 78.025 9.597 A 27.642 27.642 0 0 0 73.9 9.3 A 25.153 25.153 0 0 0 68.157 9.933 A 21.034 21.034 0 0 0 64.15 11.3 Q 59.8 13.3 56.65 17.2 A 24.525 24.525 0 0 0 53.492 22.344 A 32.859 32.859 0 0 0 51.8 26.9 Q 50.1 32.7 50.1 40.3 A 59.636 59.636 0 0 0 50.416 46.596 Q 50.765 49.878 51.499 52.729 A 35.056 35.056 0 0 0 51.75 53.65 A 30.495 30.495 0 0 0 53.769 58.9 A 23.46 23.46 0 0 0 56.6 63.3 Q 59.8 67.2 64.45 69.2 Q 69.1 71.2 75.1 71.2 A 27.091 27.091 0 0 0 80.712 70.646 A 20.291 20.291 0 0 0 86.5 68.5 Q 91.3 65.8 94.45 61.15 A 37.238 37.238 0 0 0 99.186 51.177 A 41.677 41.677 0 0 0 99.3 50.8 Z M 214.8 50.8 L 221 53.3 A 39.859 39.859 0 0 1 217.394 61.989 A 34.687 34.687 0 0 1 214.7 66.05 Q 210.5 71.5 204.3 74.5 Q 198.1 77.5 190.1 77.5 A 41.146 41.146 0 0 1 181.459 76.624 A 34.452 34.452 0 0 1 176.05 75 Q 169.7 72.5 165.1 67.65 A 31.842 31.842 0 0 1 159.044 58.415 A 37.805 37.805 0 0 1 158.05 55.9 Q 155.6 49 155.6 40.3 Q 155.6 31.5 158.15 24.6 A 35.477 35.477 0 0 1 162.138 16.795 A 30.75 30.75 0 0 1 165.3 12.9 Q 169.9 8.1 176.05 5.55 A 33.992 33.992 0 0 1 188.361 3.011 A 39.021 39.021 0 0 1 189.3 3 A 35.056 35.056 0 0 1 195.061 3.45 Q 198.314 3.992 201.039 5.188 A 21.682 21.682 0 0 1 201.4 5.35 Q 206.5 7.7 209.8 12.2 A 24.519 24.519 0 0 1 213.005 18.262 A 32.998 32.998 0 0 1 214.4 23.3 L 211.5 20.7 L 212.9 4.3 L 219.4 4.3 L 219.4 28.1 L 212.4 28.1 A 35.178 35.178 0 0 0 210.122 22.235 A 28.208 28.208 0 0 0 207.6 18.1 Q 204.5 13.9 199.95 11.6 A 21.127 21.127 0 0 0 193.525 9.597 A 27.642 27.642 0 0 0 189.4 9.3 A 25.153 25.153 0 0 0 183.657 9.933 A 21.034 21.034 0 0 0 179.65 11.3 Q 175.3 13.3 172.15 17.2 A 24.525 24.525 0 0 0 168.992 22.344 A 32.859 32.859 0 0 0 167.3 26.9 Q 165.6 32.7 165.6 40.3 A 59.636 59.636 0 0 0 165.916 46.596 Q 166.265 49.878 166.999 52.729 A 35.056 35.056 0 0 0 167.25 53.65 A 30.495 30.495 0 0 0 169.269 58.9 A 23.46 23.46 0 0 0 172.1 63.3 Q 175.3 67.2 179.95 69.2 Q 184.6 71.2 190.6 71.2 A 27.091 27.091 0 0 0 196.212 70.646 A 20.291 20.291 0 0 0 202 68.5 Q 206.8 65.8 209.95 61.15 A 37.238 37.238 0 0 0 214.686 51.177 A 41.677 41.677 0 0 0 214.8 50.8 Z M 296.9 4.8 L 329 4.8 A 45.127 45.127 0 0 1 333.893 5.053 Q 336.434 5.33 338.657 5.912 A 28.002 28.002 0 0 1 338.8 5.95 A 22.923 22.923 0 0 1 342.524 7.281 A 17.22 17.22 0 0 1 346 9.4 Q 348.9 11.7 350.45 15.1 A 17.145 17.145 0 0 1 351.841 20.138 A 21.669 21.669 0 0 1 352 22.8 A 15.371 15.371 0 0 1 350.92 28.601 A 14.554 14.554 0 0 1 349.55 31.2 A 14.328 14.328 0 0 1 345.405 35.263 A 19.557 19.557 0 0 1 342.2 36.95 A 24.29 24.29 0 0 1 337.472 38.351 Q 335.188 38.797 332.56 38.937 A 46.479 46.479 0 0 1 330.1 39 L 334.6 36.2 L 334.6 40.7 L 330.5 37.9 A 48.723 48.723 0 0 1 336.361 38.306 Q 339.295 38.7 341.782 39.471 A 25.37 25.37 0 0 1 343.95 40.25 A 22.589 22.589 0 0 1 348.187 42.521 A 16.549 16.549 0 0 1 352.25 46.45 A 15.026 15.026 0 0 1 354.964 53.568 A 19.438 19.438 0 0 1 355.1 55.9 A 23.064 23.064 0 0 1 354.678 60.408 A 17.893 17.893 0 0 1 353.4 64.4 Q 351.7 68.1 348.5 70.65 A 19.899 19.899 0 0 1 343.998 73.322 A 25.901 25.901 0 0 1 340.65 74.5 Q 336 75.8 330 75.8 L 296.9 75.8 L 296.9 70.3 L 298 70.3 A 32.485 32.485 0 0 0 300.39 70.217 Q 302.525 70.059 304.1 69.6 Q 306.333 68.949 306.488 66.999 A 3.763 3.763 0 0 0 306.5 66.7 L 306.5 13.8 A 3.03 3.03 0 0 0 306.242 12.518 Q 305.899 11.774 305.1 11.314 A 4.563 4.563 0 0 0 304.1 10.9 A 15.265 15.265 0 0 0 302.117 10.473 Q 301.102 10.32 299.926 10.252 A 33.767 33.767 0 0 0 298 10.2 L 296.9 10.2 L 296.9 4.8 Z M 552.1 71 L 552.1 75.8 L 525.2 75.8 L 525.2 71 L 525.7 71 A 50.231 50.231 0 0 0 528.009 70.945 A 58.06 58.06 0 0 0 528.85 70.9 A 25.578 25.578 0 0 0 530.017 70.804 Q 530.931 70.706 531.65 70.55 A 7.32 7.32 0 0 0 532.011 70.463 Q 532.8 70.248 532.8 70 L 512.7 47.8 L 512.7 47 L 531.7 28.5 Q 531.7 27.9 530.3 27.55 Q 529.128 27.257 527.57 27.104 A 29.608 29.608 0 0 0 526.95 27.05 Q 525 26.9 523.4 26.9 L 522.4 26.9 L 522.4 22.1 L 548.7 22.1 L 548.7 26.9 L 547.7 26.9 Q 545.7 26.9 543.9 27.25 Q 542.1 27.6 540.55 28.55 A 16.639 16.639 0 0 0 539.064 29.583 Q 538.338 30.146 537.581 30.839 A 28.554 28.554 0 0 0 537.3 31.1 L 519.3 48.6 L 519.7 43.4 L 541.6 67.3 A 13.924 13.924 0 0 0 542.923 68.552 Q 543.68 69.175 544.45 69.6 Q 545.9 70.4 547.6 70.7 A 19.56 19.56 0 0 0 549.783 70.954 A 24.425 24.425 0 0 0 551.3 71 L 552.1 71 Z M 10 66.7 L 10 13.8 A 3.03 3.03 0 0 0 9.742 12.518 Q 9.399 11.774 8.6 11.314 A 4.563 4.563 0 0 0 7.6 10.9 A 15.265 15.265 0 0 0 5.617 10.473 Q 4.602 10.32 3.426 10.252 A 33.767 33.767 0 0 0 1.5 10.2 L 0 10.2 L 0 4.8 L 29.4 4.8 L 29.4 10.2 L 27.8 10.2 A 32.485 32.485 0 0 0 25.41 10.283 Q 23.275 10.441 21.7 10.9 Q 19.467 11.551 19.312 13.501 A 3.763 3.763 0 0 0 19.3 13.8 L 19.3 66.7 A 3.03 3.03 0 0 0 19.558 67.982 Q 19.901 68.726 20.7 69.186 A 4.563 4.563 0 0 0 21.7 69.6 A 15.265 15.265 0 0 0 23.683 70.027 Q 24.698 70.18 25.874 70.248 A 33.767 33.767 0 0 0 27.8 70.3 L 29.4 70.3 L 29.4 75.8 L 0 75.8 L 0 70.3 L 1.5 70.3 A 32.485 32.485 0 0 0 3.89 70.217 Q 6.025 70.059 7.6 69.6 Q 9.833 68.949 9.988 66.999 A 3.763 3.763 0 0 0 10 66.7 Z M 125.5 66.7 L 125.5 13.8 A 3.03 3.03 0 0 0 125.242 12.518 Q 124.899 11.774 124.1 11.314 A 4.563 4.563 0 0 0 123.1 10.9 A 15.265 15.265 0 0 0 121.117 10.473 Q 120.102 10.32 118.926 10.252 A 33.767 33.767 0 0 0 117 10.2 L 115.5 10.2 L 115.5 4.8 L 144.9 4.8 L 144.9 10.2 L 143.3 10.2 A 32.485 32.485 0 0 0 140.91 10.283 Q 138.775 10.441 137.2 10.9 Q 134.967 11.551 134.812 13.501 A 3.763 3.763 0 0 0 134.8 13.8 L 134.8 66.7 A 3.03 3.03 0 0 0 135.058 67.982 Q 135.401 68.726 136.2 69.186 A 4.563 4.563 0 0 0 137.2 69.6 A 15.265 15.265 0 0 0 139.183 70.027 Q 140.198 70.18 141.374 70.248 A 33.767 33.767 0 0 0 143.3 70.3 L 144.9 70.3 L 144.9 75.8 L 115.5 75.8 L 115.5 70.3 L 117 70.3 A 32.485 32.485 0 0 0 119.39 70.217 Q 121.525 70.059 123.1 69.6 Q 125.333 68.949 125.488 66.999 A 3.763 3.763 0 0 0 125.5 66.7 Z M 241 66.7 L 241 13.8 A 3.03 3.03 0 0 0 240.742 12.518 Q 240.399 11.774 239.6 11.314 A 4.563 4.563 0 0 0 238.6 10.9 A 15.265 15.265 0 0 0 236.617 10.473 Q 235.602 10.32 234.426 10.252 A 33.767 33.767 0 0 0 232.5 10.2 L 231 10.2 L 231 4.8 L 260.4 4.8 L 260.4 10.2 L 258.8 10.2 A 32.485 32.485 0 0 0 256.41 10.283 Q 254.275 10.441 252.7 10.9 Q 250.467 11.551 250.312 13.501 A 3.763 3.763 0 0 0 250.3 13.8 L 250.3 66.7 A 3.03 3.03 0 0 0 250.558 67.982 Q 250.901 68.726 251.7 69.186 A 4.563 4.563 0 0 0 252.7 69.6 A 15.265 15.265 0 0 0 254.683 70.027 Q 255.698 70.18 256.874 70.248 A 33.767 33.767 0 0 0 258.8 70.3 L 260.4 70.3 L 260.4 75.8 L 231 75.8 L 231 70.3 L 232.5 70.3 A 32.485 32.485 0 0 0 234.89 70.217 Q 237.025 70.059 238.6 69.6 Q 240.833 68.949 240.988 66.999 A 3.763 3.763 0 0 0 241 66.7 Z M 417.6 75.8 L 401.7 75.8 L 400.5 64.2 L 400 63.6 L 400 37.5 A 23.574 23.574 0 0 0 399.887 35.116 Q 399.664 32.927 399 31.4 Q 398 29.1 395.65 28.1 Q 394.006 27.4 391.554 27.19 A 26.463 26.463 0 0 0 389.3 27.1 A 34.971 34.971 0 0 0 385.435 27.301 Q 383.446 27.523 381.773 27.989 A 16.243 16.243 0 0 0 379.5 28.8 Q 375.7 30.5 373.8 32.4 Q 373.8 31.6 374.2 30.75 A 6.079 6.079 0 0 1 375.048 29.435 A 7.068 7.068 0 0 1 375.3 29.15 Q 376 28.4 376.95 27.9 A 6.679 6.679 0 0 1 378.374 27.354 A 8.159 8.159 0 0 1 379.1 27.2 L 379.1 38.8 L 370.3 38.8 L 370.3 26.6 A 12.735 12.735 0 0 1 371.297 25.898 Q 372.446 25.162 374.111 24.364 A 41.991 41.991 0 0 1 374.35 24.25 A 26.198 26.198 0 0 1 376.709 23.284 Q 377.998 22.823 379.496 22.413 A 50.64 50.64 0 0 1 380.9 22.05 A 32.389 32.389 0 0 1 385.326 21.309 A 43.787 43.787 0 0 1 389.7 21.1 Q 393.7 21.1 397.2 21.9 A 19.034 19.034 0 0 1 400.853 23.116 A 15.749 15.749 0 0 1 403.3 24.5 Q 405.9 26.3 407.4 29.2 Q 408.759 31.828 408.887 35.524 A 22.521 22.521 0 0 1 408.9 36.3 L 408.9 66.5 A 3.144 3.144 0 0 0 409.05 67.493 A 2.546 2.546 0 0 0 409.9 68.7 A 4.678 4.678 0 0 0 410.886 69.295 Q 411.369 69.515 411.957 69.677 A 9.987 9.987 0 0 0 412.7 69.85 A 41.875 41.875 0 0 0 414.163 70.105 Q 414.819 70.209 415.553 70.308 A 83.81 83.81 0 0 0 417.1 70.5 L 417.6 70.6 L 417.6 75.8 Z M 312.7 41.5 L 312.7 35.7 L 328.8 35.7 A 26.296 26.296 0 0 0 331.95 35.523 Q 334.748 35.184 336.75 34.2 Q 339.8 32.7 341.15 29.8 Q 342.46 26.985 342.499 23.133 A 23.418 23.418 0 0 0 342.5 22.9 Q 342.5 19.362 341.307 16.811 A 10.367 10.367 0 0 0 341.05 16.3 A 9.574 9.574 0 0 0 337.057 12.36 A 11.817 11.817 0 0 0 336.65 12.15 A 12.396 12.396 0 0 0 334.048 11.238 Q 332.775 10.936 331.274 10.803 A 28.188 28.188 0 0 0 328.8 10.7 L 315.8 10.7 L 315.8 69.8 L 329.8 69.8 Q 335.2 69.8 338.65 68.2 A 11.232 11.232 0 0 0 341.961 65.911 A 10.26 10.26 0 0 0 343.75 63.45 A 13.837 13.837 0 0 0 345.037 59.722 Q 345.4 57.909 345.4 55.8 A 19.903 19.903 0 0 0 345.086 52.173 Q 344.67 49.925 343.7 48.1 Q 342 44.9 338.45 43.2 Q 335.723 41.894 331.728 41.591 A 33.485 33.485 0 0 0 329.2 41.5 L 312.7 41.5 Z M 491.2 0 L 508.9 0 L 508.9 70 A 0.207 0.207 0 0 0 508.983 70.151 Q 509.214 70.357 510.089 70.538 A 10.673 10.673 0 0 0 510.15 70.55 Q 511.223 70.765 512.628 70.869 A 31.149 31.149 0 0 0 513.1 70.9 A 64.685 64.685 0 0 0 514.511 70.968 Q 515.154 70.992 515.726 70.998 A 36.038 36.038 0 0 0 516.1 71 L 516.7 71 L 516.7 75.8 L 491.2 75.8 L 491.2 71 L 491.5 71 A 25.422 25.422 0 0 0 493.497 70.926 Q 494.485 70.848 495.346 70.688 A 13.704 13.704 0 0 0 496 70.55 A 6.466 6.466 0 0 0 497.428 70.04 A 4.761 4.761 0 0 0 498.95 68.85 A 4.191 4.191 0 0 0 499.754 67.308 Q 500 66.466 500 65.4 L 500 9.9 Q 500 8.807 499.549 8.112 A 2.243 2.243 0 0 0 499.15 7.65 Q 498.551 7.121 497.528 6.717 A 10.83 10.83 0 0 0 496.6 6.4 A 29.043 29.043 0 0 0 495.313 6.056 Q 493.972 5.728 492.2 5.4 L 491.2 5.2 L 491.2 0 Z M 484.3 71 L 484.3 75.8 L 459.1 75.8 L 459.1 71 L 459.4 71 Q 460.8 71 462.5 70.9 A 28.365 28.365 0 0 0 463.712 70.804 Q 464.37 70.737 464.945 70.642 A 15.163 15.163 0 0 0 465.45 70.55 A 8.538 8.538 0 0 0 465.843 70.463 Q 466.7 70.248 466.7 70 L 466.7 37.3 A 21.175 21.175 0 0 0 466.6 35.173 Q 466.492 34.107 466.268 33.205 A 9.691 9.691 0 0 0 465.85 31.9 Q 465 29.8 463.1 28.75 A 7.455 7.455 0 0 0 461.342 28.07 Q 459.9 27.7 458 27.7 Q 454.7 27.7 451.55 29 A 20.307 20.307 0 0 0 447.549 31.233 A 25.461 25.461 0 0 0 445.45 32.9 A 33.624 33.624 0 0 0 442.859 35.462 Q 441.188 37.294 439.5 39.6 L 439.5 34.2 Q 442.4 29.9 445.6 27 A 24.53 24.53 0 0 1 450.213 23.674 A 21.665 21.665 0 0 1 452.45 22.6 Q 456.1 21.1 460.3 21.1 A 24.224 24.224 0 0 1 463.892 21.352 Q 465.849 21.646 467.485 22.282 A 13.459 13.459 0 0 1 468.55 22.75 Q 471.9 24.4 473.75 27.75 A 13.805 13.805 0 0 1 475.078 31.275 Q 475.465 32.919 475.565 34.836 A 26.209 26.209 0 0 1 475.6 36.2 L 475.6 65.4 A 7.807 7.807 0 0 0 475.713 66.771 Q 475.936 68.02 476.6 68.85 A 4.531 4.531 0 0 0 478.244 70.12 A 6.445 6.445 0 0 0 479.5 70.55 A 15.447 15.447 0 0 0 481.296 70.858 Q 482.538 71 484 71 L 484.3 71 Z M 401.9 43.1 L 401.9 48.4 Q 397.23 49.012 393.556 49.742 A 80.544 80.544 0 0 0 391.4 50.2 Q 388.074 50.956 385.605 51.826 A 30.176 30.176 0 0 0 384.1 52.4 A 22.34 22.34 0 0 0 382.094 53.342 Q 381.137 53.855 380.363 54.413 A 11.273 11.273 0 0 0 379.5 55.1 Q 377.8 56.6 377.1 58.5 A 11.523 11.523 0 0 0 376.418 61.911 A 13.401 13.401 0 0 0 376.4 62.6 A 11.288 11.288 0 0 0 376.589 64.722 Q 376.831 65.989 377.385 67.013 A 6.871 6.871 0 0 0 377.55 67.3 Q 378.7 69.2 380.8 70.15 A 10.383 10.383 0 0 0 383.384 70.918 A 14.087 14.087 0 0 0 385.7 71.1 Q 388.9 71.1 391.6 69.6 Q 394.131 68.194 396.487 65.469 A 26.716 26.716 0 0 0 396.8 65.1 Q 398.948 62.522 401.023 58.836 A 62.117 62.117 0 0 0 401.7 57.6 L 401.8 63.5 A 34.21 34.21 0 0 1 399.196 67.981 A 28.154 28.154 0 0 1 397.15 70.6 A 19.9 19.9 0 0 1 392.632 74.433 A 18.36 18.36 0 0 1 391.15 75.25 Q 387.8 76.9 383.6 76.9 A 23.784 23.784 0 0 1 379.141 76.5 A 18.306 18.306 0 0 1 375.1 75.25 A 13.566 13.566 0 0 1 370.769 72.249 A 12.901 12.901 0 0 1 369.3 70.4 A 12.637 12.637 0 0 1 367.426 65.513 A 16.855 16.855 0 0 1 367.2 62.7 A 15.626 15.626 0 0 1 367.642 58.904 A 12.42 12.42 0 0 1 369.1 55.4 Q 371 52.3 375.15 50 Q 378.287 48.262 382.823 46.866 A 69.016 69.016 0 0 1 385.9 46 A 96.592 96.592 0 0 1 391.244 44.795 Q 394.232 44.204 397.648 43.69 A 190.585 190.585 0 0 1 401.9 43.1 Z M 448.9 75.8 L 423.7 75.8 L 423.7 71 L 424 71 A 25.422 25.422 0 0 0 425.997 70.926 Q 426.985 70.848 427.846 70.688 A 13.704 13.704 0 0 0 428.5 70.55 A 6.357 6.357 0 0 0 429.847 70.076 A 4.5 4.5 0 0 0 431.4 68.85 A 4.234 4.234 0 0 0 432.146 67.376 Q 432.4 66.509 432.4 65.4 L 432.4 32 Q 432.4 30.907 431.949 30.212 A 2.243 2.243 0 0 0 431.55 29.75 Q 430.951 29.221 429.928 28.817 A 10.83 10.83 0 0 0 429 28.5 A 31.955 31.955 0 0 0 427.63 28.133 Q 426.988 27.975 426.255 27.816 A 70.058 70.058 0 0 0 424.7 27.5 L 423.7 27.3 L 423.7 22.1 L 439.7 22.1 L 440.9 33.5 L 441.3 34 L 441.3 70 Q 441.3 70.298 442.486 70.547 A 10.17 10.17 0 0 0 442.5 70.55 A 15.065 15.065 0 0 0 443.558 70.728 Q 444.078 70.799 444.668 70.848 A 29.368 29.368 0 0 0 445.4 70.9 Q 447.1 71 448.5 71 L 448.9 71 L 448.9 75.8 Z" vector-effect="non-scaling-stroke"/></g></svg>